<svg width="24" height="24" viewBox="0 0 24 24" fill="none" xmlns="http://www.w3.org/2000/svg">
<path d="M18.7692 4H5.23077C4.55103 4 4 4.57563 4 5.28571V11.7143C4 12.4244 4.55103 13 5.23077 13H18.7692C19.449 13 20 12.4244 20 11.7143V5.28571C20 4.57563 19.449 4 18.7692 4Z" stroke="black" stroke-width="1.5" stroke-linecap="round" stroke-linejoin="round"/>
<path d="M17 13V10.3333C17 9.97971 16.8683 9.64057 16.6339 9.39052C16.3995 9.14048 16.0815 9 15.75 9H8.25C7.91848 9 7.60054 9.14048 7.36612 9.39052C7.1317 9.64057 7 9.97971 7 10.3333V13" stroke="black" stroke-width="1.5" stroke-linecap="round" stroke-linejoin="round"/>
<path d="M6 19H6.6C7.3732 19 8 18.3732 8 17.6V16" stroke="black" stroke-width="1.5" stroke-linecap="round" stroke-linejoin="round"/>
<path d="M18 19H17.4C16.6268 19 16 18.3732 16 17.6V16" stroke="black" stroke-width="1.5" stroke-linecap="round" stroke-linejoin="round"/>
<path d="M12 20V16" stroke="black" stroke-width="1.5" stroke-linecap="round" stroke-linejoin="round"/>
</svg>
