<svg width="24" height="24" viewBox="0 0 24 24" fill="none" xmlns="http://www.w3.org/2000/svg">
<path d="M15.6969 6.66226C14.1049 6.5456 12.7569 7.54976 12.0009 7.54976C11.2449 7.54976 10.0569 6.68726 8.80892 6.71226C7.16892 6.73726 5.65692 7.66643 4.80892 9.12893C3.10492 12.0789 4.37292 16.4539 6.03292 18.8498C6.84492 20.0206 7.81292 21.3373 9.08492 21.2914C10.3089 21.2414 10.7729 20.4998 12.2529 20.4998C13.7329 20.4998 14.1489 21.2914 15.4449 21.2664C16.7609 21.2414 17.5969 20.0706 18.4049 18.8956C19.3369 17.5373 19.7209 16.2206 19.7449 16.1539C19.7169 16.1414 17.1769 15.1706 17.1489 12.2498C17.1249 9.8081 19.1449 8.63726 19.2369 8.57893C18.0889 6.8956 16.3209 6.7081 15.6969 6.66226Z" fill="black"/>
<path d="M14.7126 5.07917C15.3886 4.26667 15.8446 3.12917 15.7206 2C14.7486 2.0375 13.5726 2.64583 12.8726 3.4625C12.2486 4.18333 11.7006 5.34167 11.8486 6.44583C12.9326 6.52917 14.0406 5.89583 14.7166 5.07917" fill="black"/>
</svg>
