<svg width="24" height="24" viewBox="0 0 24 24" fill="none" xmlns="http://www.w3.org/2000/svg">
<path d="M19 19H5C3.895 19 3 18.2169 3 17.25V9.375C3 8.40812 3.895 7.625 5 7.625H7.5L8.27 5.59937C8.405 5.24062 8.79 5 9.22 5H14.78C15.21 5 15.595 5.24062 15.73 5.59937L16.5 7.625H19C20.105 7.625 21 8.40812 21 9.375V17.25C21 18.2169 20.105 19 19 19Z" stroke="black" stroke-width="2" stroke-linejoin="round"/>
<path d="M12 16C13.933 16 15.5 14.433 15.5 12.5C15.5 10.567 13.933 9 12 9C10.067 9 8.5 10.567 8.5 12.5C8.5 14.433 10.067 16 12 16Z" stroke="black" stroke-width="2" stroke-miterlimit="10"/>
</svg>
