<svg width="24" height="24" viewBox="0 0 24 24" fill="none" xmlns="http://www.w3.org/2000/svg">
<path d="M6.59961 12.0001V8.60166C6.61015 7.93364 6.75831 7.27418 7.03558 6.66106C7.31285 6.04794 7.71379 5.49322 8.21542 5.02867C8.71706 4.56413 9.30953 4.19889 9.95889 3.95389C10.6082 3.70889 11.3017 3.58894 11.9996 3.60091C12.6975 3.58894 13.391 3.70889 14.0403 3.95389C14.6897 4.19889 15.2822 4.56413 15.7838 5.02867C16.2854 5.49322 16.6864 6.04794 16.9636 6.66106C17.2409 7.27418 17.3891 7.93364 17.3996 8.60166V12.0001" stroke="black" stroke-width="1.5" stroke-linecap="round" stroke-linejoin="round"/>
<path d="M4.79961 10.2002H5.99961C6.15874 10.2002 6.31135 10.2634 6.42387 10.3759C6.5364 10.4885 6.59961 10.6411 6.59961 10.8002V14.4002C6.59961 14.5593 6.5364 14.7119 6.42387 14.8245C6.31135 14.937 6.15874 15.0002 5.99961 15.0002H4.79961C4.48135 15.0002 4.17612 14.8738 3.95108 14.6487C3.72604 14.4237 3.59961 14.1185 3.59961 13.8002V11.4002C3.59961 11.0819 3.72604 10.7767 3.95108 10.5517C4.17612 10.3266 4.48135 10.2002 4.79961 10.2002V10.2002Z" stroke="black" stroke-width="1.5" stroke-linecap="round" stroke-linejoin="round"/>
<path d="M19.2004 15H18.0004C17.8413 15 17.6886 14.9368 17.5761 14.8243C17.4636 14.7117 17.4004 14.5591 17.4004 14.4V10.8C17.4004 10.6409 17.4636 10.4883 17.5761 10.3757C17.6886 10.2632 17.8413 10.2 18.0004 10.2H19.2004C19.5187 10.2 19.8239 10.3264 20.0489 10.5515C20.274 10.7765 20.4004 11.0817 20.4004 11.4V13.8C20.4004 14.1183 20.274 14.4235 20.0489 14.6485C19.8239 14.8736 19.5187 15 19.2004 15V15Z" stroke="black" stroke-width="1.5" stroke-linecap="round" stroke-linejoin="round"/>
<path d="M15 18.3002C15.6365 18.3002 16.247 18.0473 16.6971 17.5973C17.1471 17.1472 17.4 16.5367 17.4 15.9002V13.2002" stroke="black" stroke-width="1.5" stroke-linecap="round" stroke-linejoin="round"/>
<path d="M15.0002 18.2998C15.0002 18.6976 14.8422 19.0792 14.5609 19.3605C14.2796 19.6418 13.898 19.7998 13.5002 19.7998H11.7002C11.3024 19.7998 10.9208 19.6418 10.6395 19.3605C10.3582 19.0792 10.2002 18.6976 10.2002 18.2998C10.2002 17.902 10.3582 17.5204 10.6395 17.2391C10.9208 16.9578 11.3024 16.7998 11.7002 16.7998H13.5002C13.898 16.7998 14.2796 16.9578 14.5609 17.2391C14.8422 17.5204 15.0002 17.902 15.0002 18.2998Z" stroke="black" stroke-width="1.5" stroke-linecap="round" stroke-linejoin="round"/>
</svg>
