<svg width="24" height="24" viewBox="0 0 24 24" fill="none" xmlns="http://www.w3.org/2000/svg">
<path fill-rule="evenodd" clip-rule="evenodd" d="M3.55469 5.9251C3.55469 4.61596 4.61596 3.55469 5.9251 3.55469C7.23424 3.55469 8.29551 4.61596 8.29551 5.9251C8.29551 7.23424 7.23424 8.29551 5.9251 8.29551C4.61596 8.29551 3.55469 7.23424 3.55469 5.9251ZM5.9251 2.05469C3.78753 2.05469 2.05469 3.78753 2.05469 5.9251C2.05469 7.69267 3.23956 9.1835 4.85836 9.64665L8.63456 11.8147L4.85794 13.9919C3.23935 14.4551 2.05469 15.9459 2.05469 17.7133C2.05469 19.8509 3.78753 21.5837 5.9251 21.5837C8.06267 21.5837 9.79551 19.8509 9.79551 17.7133C9.79551 16.1454 8.86326 14.7953 7.52284 14.187L10.1393 12.6786L12.8187 14.217C13.178 14.4232 13.6364 14.2992 13.8426 13.94C14.0488 13.5808 13.9248 13.1224 13.5656 12.9162L11.6426 11.8121L21.2083 6.29759C21.5671 6.09072 21.6904 5.63211 21.4835 5.27325C21.2766 4.9144 20.818 4.79119 20.4591 4.99806L10.1378 10.9481L7.52732 9.44935C8.86534 8.84007 9.79551 7.49121 9.79551 5.9251C9.79551 3.78753 8.06267 2.05469 5.9251 2.05469ZM12.5 15.9232C12.0858 15.9232 11.75 16.259 11.75 16.6732C11.75 17.0874 12.0858 17.4232 12.5 17.4232H15.2737C15.6879 17.4232 16.0237 17.0874 16.0237 16.6732C16.0237 16.259 15.6879 15.9232 15.2737 15.9232H12.5ZM18.0469 15.9232C17.6327 15.9232 17.2969 16.259 17.2969 16.6732C17.2969 17.0874 17.6327 17.4232 18.0469 17.4232H20.8206C21.2348 17.4232 21.5706 17.0874 21.5706 16.6732C21.5706 16.259 21.2348 15.9232 20.8206 15.9232H18.0469ZM3.55469 17.7133C3.55469 16.4041 4.61596 15.3429 5.9251 15.3429C7.23424 15.3429 8.29551 16.4041 8.29551 17.7133C8.29551 19.0224 7.23424 20.0837 5.9251 20.0837C4.61596 20.0837 3.55469 19.0224 3.55469 17.7133Z" fill="black"/>
</svg>
