<svg width="24" height="24" viewBox="0 0 24 24" fill="none" xmlns="http://www.w3.org/2000/svg">
<path d="M20.2338 15.6356C20.7253 14.5238 20.9983 13.2938 20.9983 12C20.9983 7.02944 16.9692 3 11.9991 3C7.02906 3 3 7.02944 3 12C3 16.9706 7.02906 21 11.9991 21C13.5993 21 15.1019 20.5823 16.4039 19.85L21 20.9991L20.2338 15.6356Z" stroke="black" stroke-width="1.5" stroke-linecap="round" stroke-linejoin="round"/>
<path d="M12.0498 16.7349V16.6997" stroke="black" stroke-width="1.5" stroke-linecap="round" stroke-linejoin="round"/>
<path d="M9.7002 10.3501C9.7002 9.05123 10.7538 8 12.0503 8C13.3468 8 14.4004 9.05123 14.4004 10.3501C14.4004 11.6489 13.3491 12.7002 12.0503 12.7002V14.6298" stroke="black" stroke-width="1.5" stroke-linecap="round" stroke-linejoin="round"/>
</svg>
