<svg width="24" height="24" viewBox="0 0 24 24" fill="none" xmlns="http://www.w3.org/2000/svg">
<path fill-rule="evenodd" clip-rule="evenodd" d="M10.665 7.10772C11.214 6.28274 11.076 5.18019 10.3407 4.51591C9.6054 3.85164 8.49452 3.82597 7.72932 4.45557C6.96412 5.08517 6.77537 6.18018 7.28561 7.02963C7.79586 7.87908 8.85122 8.2268 9.7665 7.84703C10.1323 7.69442 10.4448 7.43723 10.665 7.10772Z" stroke="black" stroke-width="2" stroke-linecap="round" stroke-linejoin="round"/>
<path fill-rule="evenodd" clip-rule="evenodd" d="M10.665 19.1077C11.214 18.2827 11.076 17.1802 10.3407 16.5159C9.6054 15.8516 8.49452 15.826 7.72932 16.4556C6.96412 17.0852 6.77537 18.1802 7.28561 19.0296C7.79586 19.8791 8.85122 20.2268 9.7665 19.847C10.1323 19.6944 10.4448 19.4372 10.665 19.1077V19.1077Z" stroke="black" stroke-width="2" stroke-linecap="round" stroke-linejoin="round"/>
<path fill-rule="evenodd" clip-rule="evenodd" d="M13.335 13.1077C12.786 12.2827 12.924 11.1802 13.6593 10.5159C14.3946 9.85164 15.5055 9.82597 16.2707 10.4556C17.0359 11.0852 17.2246 12.1802 16.7144 13.0296C16.2041 13.8791 15.1488 14.2268 14.2335 13.847C13.8677 13.6944 13.5552 13.4372 13.335 13.1077V13.1077Z" stroke="black" stroke-width="2" stroke-linecap="round" stroke-linejoin="round"/>
<path d="M11.8574 5.08763C11.3051 5.08763 10.8574 5.53534 10.8574 6.08763C10.8574 6.63991 11.3051 7.08763 11.8574 7.08763V5.08763ZM21.0017 7.08763C21.5539 7.08763 22.0017 6.63991 22.0017 6.08763C22.0017 5.53534 21.5539 5.08763 21.0017 5.08763V7.08763ZM6.99902 7.08763C7.55131 7.08763 7.99902 6.63991 7.99902 6.08763C7.99902 5.53534 7.55131 5.08763 6.99902 5.08763V7.08763ZM2.99902 5.08763C2.44674 5.08763 1.99902 5.53534 1.99902 6.08763C1.99902 6.63991 2.44674 7.08763 2.99902 7.08763V5.08763ZM11.8574 16.8786C11.3051 16.8786 10.8574 17.3264 10.8574 17.8786C10.8574 18.4309 11.3051 18.8786 11.8574 18.8786V16.8786ZM21.0017 18.8786C21.5539 18.8786 22.0017 18.4309 22.0017 17.8786C22.0017 17.3264 21.5539 16.8786 21.0017 16.8786V18.8786ZM6.99902 18.8786C7.55131 18.8786 7.99902 18.4309 7.99902 17.8786C7.99902 17.3264 7.55131 16.8786 6.99902 16.8786V18.8786ZM2.99902 16.8786C2.44674 16.8786 1.99902 17.3264 1.99902 17.8786C1.99902 18.4309 2.44674 18.8786 2.99902 18.8786V16.8786ZM12.1433 12.9831C12.6955 12.9831 13.1433 12.5354 13.1433 11.9831C13.1433 11.4309 12.6955 10.9831 12.1433 10.9831V12.9831ZM2.99902 10.9831C2.44674 10.9831 1.99902 11.4309 1.99902 11.9831C1.99902 12.5354 2.44674 12.9831 2.99902 12.9831V10.9831ZM17 11C16.4477 11 16 11.4477 16 12C16 12.5523 16.4477 13 17 13V11ZM21 13C21.5523 13 22 12.5523 22 12C22 11.4477 21.5523 11 21 11V13ZM11.8574 7.08763H21.0017V5.08763H11.8574V7.08763ZM6.99902 5.08763H2.99902V7.08763H6.99902V5.08763ZM11.8574 18.8786H21.0017V16.8786H11.8574V18.8786ZM6.99902 16.8786H2.99902V18.8786H6.99902V16.8786ZM12.1433 10.9831H2.99902V12.9831H12.1433V10.9831ZM17 13H21V11H17V13Z" fill="black"/>
</svg>
