<svg width="24" height="24" viewBox="0 0 24 24" fill="none" xmlns="http://www.w3.org/2000/svg">
<path d="M6.65692 19.0001C6.89846 19.0001 7.08716 18.8039 7.08716 18.5699V9.31598C7.08716 9.07444 6.89091 8.88574 6.65692 8.88574H4.43024C4.1887 8.88574 4 9.08199 4 9.31598V18.5699C4 18.8114 4.19625 19.0001 4.43024 19.0001H6.65692Z" fill="#002394"/>
<path d="M18.7164 8.88488H14.3914L15.0405 5.31465C15.1235 4.83912 14.9122 4.38623 14.482 4.1447C14.0517 3.90316 13.5535 3.97109 13.1837 4.29566L8.40577 8.64334C8.05855 8.94527 7.8623 9.39815 7.8623 9.85103V16.8556C7.8623 18.0029 8.79072 18.9087 9.91538 18.9087H16.1425C16.92 18.9087 17.637 18.4332 17.9163 17.7161L20.5732 11.6399C20.8299 11.0134 20.7469 10.319 20.377 9.76046C20.0071 9.2019 19.3807 8.87733 18.7089 8.87733L18.7164 8.88488Z" fill="#5B7BDA"/>
</svg>
