<svg width="24" height="24" viewBox="0 0 24 24" fill="none" xmlns="http://www.w3.org/2000/svg">
<path d="M9 14V2L15 4.30615L9.06977 7.23687" stroke="#5B7BDA" stroke-width="2" stroke-linecap="round" stroke-linejoin="round"/>
<path d="M11.0879 13C11.6722 13.4286 12 14.0317 12 14.6825C12 15.9841 10.6888 17 8.99287 17C7.29691 17 6 15.9841 6 14.6825C6 14.0635 6.28504 13.4921 6.81235 13.0794" stroke="#092060" stroke-width="2" stroke-linecap="round" stroke-linejoin="round"/>
<path d="M6.1483 10.1904C2.78902 11.4121 1.43508 14.1043 2.21423 17.1246C2.66129 18.8553 4.05354 20.2693 5.91839 21.1403C7.14459 21.7059 8.52407 22 9.878 22C10.7849 22 11.679 21.8756 12.522 21.6154C14.2591 21.0724 15.332 19.9639 15.4087 18.6404C15.447 18.0408 15.2682 17.5884 15.1405 17.2377C15.0255 16.921 14.9616 16.7626 15.0255 16.6042C15.2043 16.0726 16.4433 16.016 17.6439 15.9594C19.1639 15.8916 20.7222 15.8124 21.5014 14.8282C21.9995 14.2061 22.1273 13.5048 21.8718 12.8034C21.3098 11.2876 19.1001 10.1677 17.2224 9.62477C17.2224 9.62477 14.2463 8.82162 12.5348 9.03655" stroke="#092060" stroke-width="2" stroke-linecap="round" stroke-linejoin="round"/>
</svg>
