<svg width="24" height="24" viewBox="0 0 24 24" fill="none" xmlns="http://www.w3.org/2000/svg">
<path d="M2.50105 18.897C2.08077 18.1919 2 17.8104 2 16.6547C2 15.0123 2.75054 13.4303 4.61317 13.1777C6.50948 12.9206 7.5 13.1777 9.01475 12.9206C10.3548 12.6931 10.5 12.5104 12.8642 10.2126C15.3167 7.82902 15.4134 10.4298 18.0337 8.0318C20.6539 5.63386 22 8.03104 22 9.03944C22 10.6578 20.6625 12.1752 19.3251 13.1777C17.9877 14.1803 19.7176 21.2132 13.5242 19.4404C8.30299 17.9458 9.79171 19.3306 7.32922 20.5797C5 21.7612 3.28405 20.2108 2.50105 18.897Z" stroke="#092060" stroke-width="2"/>
<path d="M6 15V3L12 5.30615L6.06977 8.23687" stroke="#5B7BDA" stroke-width="2" stroke-linecap="round" stroke-linejoin="round"/>
</svg>
