<svg width="24" height="24" viewBox="0 0 24 24" fill="none" xmlns="http://www.w3.org/2000/svg">
<path d="M6.914 20.914C5.688 20.539 5 20.03 5 19.5V14.5C5 15.03 5.688 15.539 6.914 15.914C8.41842 16.3257 9.97343 16.523 11.533 16.5H12.466C14.0259 16.5231 15.5813 16.3258 17.086 15.914C18.312 15.539 19 15.03 19 14.5V19.5C19 20.03 18.312 20.539 17.086 20.914C15.5813 21.3258 14.0259 21.5231 12.466 21.5H11.533C9.97343 21.523 8.41842 21.3257 6.914 20.914Z" fill="#002394" stroke="#002394" stroke-linejoin="round"/>
<path d="M6.914 15.914C5.688 15.539 5 15.03 5 14.5V9.5C5 10.03 5.688 10.539 6.914 10.914C8.41842 11.3257 9.97343 11.523 11.533 11.5H12.466C14.0259 11.5231 15.5813 11.3258 17.086 10.914C18.312 10.539 19 10.03 19 9.5V14.5C19 15.03 18.312 15.539 17.086 15.914C15.5813 16.3258 14.0259 16.5231 12.466 16.5H11.533C9.97343 16.523 8.41842 16.3257 6.914 15.914Z" fill="#7DA8EA" stroke="#7DA8EA" stroke-linejoin="round"/>
<path d="M6.914 10.9963C5.688 10.6749 5 10.2388 5 9.7846V4.5C5 4.95417 5.688 5.39034 6.914 5.71169C8.41842 6.06448 9.97343 6.23354 11.533 6.21384H12.466C14.0259 6.23362 15.5813 6.06456 17.086 5.71169C18.312 5.39034 19 4.95417 19 4.5V9.7846C19 10.2388 18.312 10.6749 17.086 10.9963C15.5813 11.3492 14.0259 11.5182 12.466 11.4984H11.533C9.97343 11.5181 8.41842 11.3491 6.914 10.9963Z" fill="#002394" stroke="#002394" stroke-linejoin="round"/>
<ellipse cx="12" cy="4.5" rx="7" ry="2" fill="#7DA8EA" stroke="#7DA8EA" stroke-linejoin="round"/>
</svg>
