<svg width="24" height="24" viewBox="0 0 24 24" fill="none" xmlns="http://www.w3.org/2000/svg">
<rect x="3.875" y="16.25" width="2.5" height="3.74992" rx="1" fill="#002394"/>
<rect x="17.625" y="16.25" width="2.5" height="3.74992" rx="1" fill="#002394"/>
<path d="M21.7187 12.0816C21.4036 11.5736 20.8187 11.257 20.1821 11.25L3.8179 11.251C3.18125 11.2581 2.5964 11.5746 2.28125 12.0826C2.09604 12.3717 1.99895 12.7013 2.00015 13.0367V15.7142C1.99188 16.3394 2.3355 16.9242 2.90902 17.2611C3.18175 17.4171 3.4966 17.4998 3.8179 17.4999H20.1821C20.5034 17.4998 20.8183 17.4171 21.091 17.2611C21.6645 16.9242 22.0081 16.3394 21.9999 15.7142V13.0367C22.0013 12.7009 21.9042 12.371 21.7187 12.0816Z" fill="#002394"/>
<path d="M7.74331 5C5.43292 5 5.57304 6.2495 4.72457 8.06089L3.875 9.9999L20.125 9.99895L19.2765 8.06089C18.427 6.2495 18.566 5 16.2578 5H7.74331Z" fill="#7DA8EA" stroke="#7DA8EA" stroke-linecap="round" stroke-linejoin="round"/>
<ellipse cx="5.74902" cy="14.375" rx="1.25" ry="1.24997" fill="white"/>
<ellipse cx="18.249" cy="14.375" rx="1.25" ry="1.24997" fill="white"/>
</svg>
