<svg width="24" height="24" viewBox="0 0 24 24" fill="none" xmlns="http://www.w3.org/2000/svg">
<path d="M12.5235 7.33594C15.4059 7.33594 20.4102 8.14362 21.4773 11.6088C21.7226 12.4035 21.5999 13.2112 21.1216 13.9407C20.3734 15.061 18.8647 15.1522 17.4174 15.2434C16.2767 15.3085 15.087 15.3737 14.903 15.9859C14.8539 16.1683 14.903 16.3507 15.0134 16.7155C15.1483 17.1193 15.3078 17.6404 15.271 18.3308C15.1974 19.855 14.1671 21.1447 12.499 21.7569C11.6895 22.0566 10.8309 22.1999 9.96004 22.1999C8.64763 22.1999 7.32297 21.8612 6.15775 21.2098C4.367 20.2067 3.03007 18.5783 2.60078 16.5852C2.15922 14.5399 2.41679 12.3253 3.68013 10.6579C4.94347 8.99038 6.93047 8.23481 8.80709 7.79189C10.0704 7.49226 11.297 7.34896 12.5235 7.34896V7.33594Z" fill="#002394"/>
<path d="M9.20896 13.1991C9.66278 13.5248 9.96941 13.9938 9.96941 14.6061C9.96941 15.6743 8.84099 16.508 7.38141 16.508C5.92182 16.508 4.80566 15.6743 4.80566 14.6061C4.80566 12.5608 7.7739 12.17 9.20896 13.1991Z" fill="white"/>
<path fill-rule="evenodd" clip-rule="evenodd" d="M6.6084 2.25005C6.6084 1.89117 6.97527 1.64916 7.30518 1.7904L12.9165 4.19275C13.3203 4.36561 13.321 4.93778 12.9176 5.11158L8.11 7.18311V14.1681C8.11 14.5823 7.77421 14.9181 7.36 14.9181C6.94579 14.9181 6.61 14.5823 6.61 14.1681V7.11107C6.60894 7.09764 6.6084 7.08403 6.6084 7.07024V2.25005Z" fill="#7DA8EA"/>
</svg>
