<svg width="24" height="24" viewBox="0 0 24 24" fill="none" xmlns="http://www.w3.org/2000/svg">
<g clip-path="url(#clip0_1047_25428)">
<path d="M3.84861 8.21455L10.3619 11.6008C10.5554 11.7014 10.7918 11.665 10.9461 11.5107L13.2458 9.21094C13.5243 8.93249 13.3865 8.45638 13.0024 8.36966L4.92627 6.5463C4.75893 6.50852 4.5839 6.55916 4.4626 6.68047L3.7257 7.41737C3.48672 7.65635 3.54875 8.05865 3.84861 8.21455Z" fill="#002394" stroke="#002394" stroke-linejoin="round"/>
<path d="M18.0322 19.6516L16.0698 10.9594C16.032 10.792 16.0826 10.617 16.2039 10.4957L19.8607 6.83895C20.142 6.55764 20.3 6.17611 20.3 5.77829C20.3 5.38046 20.142 4.99893 19.8607 4.71762C19.5794 4.43632 19.1979 4.27829 18.8 4.27829C18.4022 4.27829 18.0207 4.43632 17.7394 4.71762L13.8878 8.56924L10.6874 11.7696L7.10531 15.3517C6.97693 15.4801 6.78903 15.5288 6.61444 15.4789L3.8801 14.6979C3.70551 14.648 3.51761 14.6967 3.38922 14.8251L2.97732 15.237C2.75114 15.4632 2.79257 15.8407 3.06244 16.0124L6.33192 18.093C6.39366 18.1323 6.44603 18.1847 6.48532 18.2464L8.5659 21.5159C8.73763 21.7857 9.1151 21.8272 9.34128 21.601L9.75312 21.1892C9.88155 21.0607 9.93023 20.8728 9.88031 20.6982L9.0988 17.9646C9.04888 17.79 9.09757 17.6021 9.22599 17.4736L12.3256 14.374C12.5646 14.1351 12.9668 14.1971 13.1228 14.4969L16.364 20.7294C16.5199 21.0292 16.9221 21.0912 17.1611 20.8522L17.8981 20.1153C18.0194 19.994 18.07 19.819 18.0322 19.6516Z" fill="#7DA8EA" stroke="#7DA8EA" stroke-linejoin="round"/>
</g>
<defs>
<clipPath id="clip0_1047_25428">
<rect width="24" height="24" fill="white"/>
</clipPath>
</defs>
</svg>
