<svg width="24" height="24" viewBox="0 0 24 24" fill="none" xmlns="http://www.w3.org/2000/svg">
<path d="M6.00428 15.9965C6 15.9616 6 15.9268 6 15.8919C6 13.1897 8.68759 11 12 11C15.3124 11 18 13.1897 18 15.8919C18 15.9268 18 15.9651 17.9957 16" stroke="#5B7BDA" stroke-width="2" stroke-linecap="round" stroke-linejoin="round"/>
<path d="M21 12.0008C21 14.0699 19.4294 15.8932 17.0393 16.9712C15.6012 17.6199 13.8671 18 11.9994 18C10.1316 18 8.39884 17.6199 6.96069 16.9696C4.57064 15.8949 3 14.0699 3 12.0008C3 8.68833 7.03016 6 11.9994 6C16.9686 6 21 8.68833 21 12.0008Z" stroke="#092060" stroke-width="2" stroke-linecap="round" stroke-linejoin="round"/>
</svg>
