<svg width="24" height="24" viewBox="0 0 24 24" fill="none" xmlns="http://www.w3.org/2000/svg">
<rect x="5.5" y="3" width="16" height="18" rx="2" fill="#002394"/>
<path fill-rule="evenodd" clip-rule="evenodd" d="M3.47971 12.5503L7.70971 9.1911C8.20607 8.9363 8.79479 8.9363 9.29114 9.1911L13.5211 12.5503C14.188 12.9529 14.56 13.7063 14.4743 14.4805L14.5 17.5714C14.5 19.465 14.165 21 12.2714 21H4.72857C2.83502 21 2.5 19.465 2.5 17.5714L2.52657 14.4857C2.43875 13.7097 2.81107 12.9537 3.47971 12.5503Z" fill="#7DA8EA"/>
<path fill-rule="evenodd" clip-rule="evenodd" d="M6.5 21V19C6.5 17.8954 7.39543 17 8.5 17C9.60457 17 10.5 17.8954 10.5 19V21" fill="white"/>
</svg>
