<svg width="24" height="24" viewBox="0 0 24 24" fill="none" xmlns="http://www.w3.org/2000/svg">
<path d="M14 18.5C17.5 18 17 17.5 18.0787 14.4639L21 5" stroke="#092060" stroke-width="2" stroke-linecap="round" stroke-linejoin="round"/>
<path d="M17.75 2C17.75 2 17 4.5 15.7414 8.41534C14.6854 7.99726 11.1086 6.41635 9.07944 5.48737C5.53346 3.86253 3 6.90434 3 11.5684C3.0001 16.2325 4 16.5 6.5 18" stroke="#092060" stroke-width="2" stroke-linecap="round" stroke-linejoin="round"/>
<path d="M10.5 22C12.433 22 14 20.433 14 18.5C14 16.567 12.433 15 10.5 15C8.567 15 7 16.567 7 18.5C7 20.433 8.567 22 10.5 22Z" stroke="#5B7BDA" stroke-width="2" stroke-linecap="round" stroke-linejoin="round"/>
<path d="M7 8.5H9" stroke="#092060" stroke-width="2" stroke-linecap="round" stroke-linejoin="round"/>
<path d="M12 11.5H6" stroke="#092060" stroke-width="2" stroke-linecap="round" stroke-linejoin="round"/>
</svg>
