<svg width="24" height="24" viewBox="0 0 24 24" fill="none" xmlns="http://www.w3.org/2000/svg">
<path d="M11.47 8.99561L15.71 13.2356L8.24 20.7056H4V16.4656L11.47 8.99561Z" fill="#7DA8EA" stroke="#7DA8EA" stroke-width="2" stroke-linecap="round" stroke-linejoin="round"/>
<path d="M20.4198 7.1158L17.5998 4.2958C17.5068 4.20207 17.3962 4.12768 17.2744 4.07691C17.1525 4.02614 17.0218 4 16.8898 4C16.7578 4 16.6271 4.02614 16.5052 4.07691C16.3834 4.12768 16.2728 4.20207 16.1798 4.2958L13.2998 7.1758L17.5398 11.4158L20.4198 8.5358C20.5135 8.44283 20.5879 8.33223 20.6387 8.21037C20.6895 8.08852 20.7156 7.95781 20.7156 7.8258C20.7156 7.69379 20.6895 7.56308 20.6387 7.44122C20.5879 7.31936 20.5135 7.20876 20.4198 7.1158Z" fill="#002394" stroke="#002394" stroke-width="2" stroke-linecap="round" stroke-linejoin="round"/>
</svg>
