<svg width="24" height="24" viewBox="0 0 24 24" fill="none" xmlns="http://www.w3.org/2000/svg">
<path d="M12 4.46675C12.6128 4.3186 13.2525 4.23779 13.9057 4.23779C18.3771 4.23779 22 7.86068 22 12.332C22 16.8034 18.3771 20.4263 13.9057 20.4263C13.2525 20.4263 12.6128 20.3455 12.0067 20.2041" fill="#7DA8EA"/>
<path d="M10.0942 20.4263C14.5646 20.4263 18.1885 16.8024 18.1885 12.332C18.1885 7.86171 14.5646 4.23779 10.0942 4.23779C5.62392 4.23779 2 7.86171 2 12.332C2 16.8024 5.62392 20.4263 10.0942 20.4263Z" fill="#002394"/>
<path d="M7.23926 10.1302L8.63993 14.5343L10.0002 10.3929L11.3133 14.5343L12.8419 10.0562" stroke="white" stroke-linecap="round" stroke-linejoin="round"/>
<path d="M6.7207 12.5137H8.00016" stroke="white" stroke-linecap="round" stroke-linejoin="round"/>
<path d="M12.0059 12.5137H13.2786" stroke="white" stroke-linecap="round" stroke-linejoin="round"/>
</svg>
