<svg width="24" height="24" viewBox="0 0 24 24" fill="none" xmlns="http://www.w3.org/2000/svg">
<path d="M19.9286 2.67589C20.0365 2.66396 20.1502 2.75344 20.1502 2.8999V21.0997C20.1502 21.2378 20.0382 21.3497 19.9002 21.3497H19.0335C18.8954 21.3497 18.7835 21.2378 18.7835 21.0997V14.4198C18.7835 14.0056 18.4477 13.6698 18.0335 13.6698H16.2334C16.0953 13.6698 15.9834 13.5579 15.9834 13.4198V7.19986C15.9834 5.9909 16.4504 4.83282 17.2795 3.98005C17.9963 3.24285 18.9327 2.78603 19.9286 2.67589Z" fill="#7DA8EA" stroke="#7DA8EA" stroke-width="0.5"/>
<path d="M9.19973 21.1002V14.23C9.19973 13.9936 9.36642 13.7922 9.59261 13.7232C10.4881 13.4499 11.2865 12.9054 11.8811 12.1563C12.5614 11.2992 12.933 10.2267 12.9331 9.1203V3.86035C12.9331 3.58421 12.7093 3.36035 12.4331 3.36035H11.5664C11.2903 3.36035 11.0664 3.58421 11.0664 3.86035V9.58029C11.0664 9.85643 10.8426 10.0803 10.5664 10.0803H9.69973C9.42359 10.0803 9.19973 9.85643 9.19973 9.58029V3.86035C9.19973 3.58421 8.97587 3.36035 8.69973 3.36035H7.83302C7.55688 3.36035 7.33302 3.58421 7.33302 3.86035V9.58029C7.33302 9.85643 7.10917 10.0803 6.83302 10.0803H5.96632C5.69017 10.0803 5.46632 9.85643 5.46632 9.58029V3.86035C5.46632 3.58421 5.24246 3.36035 4.96632 3.36035H4.09961C3.82347 3.36035 3.59961 3.58421 3.59961 3.86035V9.1203C3.59974 10.2267 3.97136 11.2992 4.65163 12.1563C5.24622 12.9054 6.0447 13.4499 6.94015 13.7232C7.16633 13.7922 7.33302 13.9936 7.33302 14.23V21.1002C7.33302 21.3763 7.55688 21.6002 7.83302 21.6002H8.69973C8.97587 21.6002 9.19973 21.3763 9.19973 21.1002Z" fill="#002394" stroke="#002394" stroke-width="0.5"/>
</svg>
