<svg width="24" height="24" viewBox="0 0 24 24" fill="none" xmlns="http://www.w3.org/2000/svg">
<path d="M21 7.72178C21 7.02748 20.3098 6.54446 19.6575 6.78226L16.1988 8.04312C15.6871 8.22964 15.1216 8.19945 14.6327 7.95953L9.31126 5.34803C8.85561 5.12442 8.33197 5.08241 7.84649 5.23053L3.70818 6.49316C3.28744 6.62152 3 7.00975 3 7.44963V17.703C3 18.4431 3.77603 18.9267 4.44046 18.6007L7.37707 17.16C8.00366 16.8525 8.74519 16.894 9.3336 17.2694L14.1998 20.3735C14.8068 20.7607 15.5751 20.7918 16.2114 20.4548L20.468 18.2006C20.7953 18.0273 21 17.6873 21 17.3169V7.72178Z" fill="#002394"/>
<path d="M18.5 7.21531C18.5 8.99292 15.5 12 15.5 12C15.5 12 12.5 8.99292 12.5 7.21531C12.5 5.4377 13.8414 4 15.5 4C17.1586 4 18.5 5.4377 18.5 7.21531Z" fill="#7DA8EA" stroke="#7DA8EA" stroke-width="1.5" stroke-linecap="round" stroke-linejoin="round"/>
<path d="M15.5 8.5C16.3284 8.5 17 7.82843 17 7C17 6.17157 16.3284 5.5 15.5 5.5C14.6716 5.5 14 6.17157 14 7C14 7.82843 14.6716 8.5 15.5 8.5Z" fill="white"/>
</svg>
