<svg width="24" height="24" viewBox="0 0 24 24" fill="none" xmlns="http://www.w3.org/2000/svg">
<rect x="4.2002" y="6" width="2.4" height="2.4" rx="0.5" fill="#002394" stroke="#002394" stroke-linecap="round"/>
<path d="M21.6004 9.1198C21.6004 8.73789 21.4448 8.37162 21.1678 8.10157C20.8908 7.83152 20.5152 7.6798 20.1235 7.6798H15.9696L14.9542 4.7998H9.04655L8.03116 7.6798H3.87731C3.48561 7.6798 3.10995 7.83152 2.83297 8.10157C2.55599 8.37162 2.40039 8.73789 2.40039 9.1198V17.7598C2.40039 18.1417 2.55599 18.508 2.83297 18.778C3.10995 19.0481 3.48561 19.1998 3.87731 19.1998H20.1235C20.5152 19.1998 20.8908 19.0481 21.1678 18.778C21.4448 18.508 21.6004 18.1417 21.6004 17.7598V9.1198Z" fill="#7DA8EA" stroke="#7DA8EA" stroke-linecap="round" stroke-linejoin="round"/>
<path d="M12.0004 16.8001C13.9886 16.8001 15.6004 15.1883 15.6004 13.2001C15.6004 11.2119 13.9886 9.6001 12.0004 9.6001C10.0122 9.6001 8.40039 11.2119 8.40039 13.2001C8.40039 15.1883 10.0122 16.8001 12.0004 16.8001Z" fill="#002394" stroke="#002394" stroke-linecap="round" stroke-linejoin="round"/>
<path d="M14.4004 13.7998C14.1948 14.269 13.5055 15.2819 12.3928 15.5801" stroke="white" stroke-linecap="round"/>
</svg>
