<svg width="24" height="24" viewBox="0 0 24 24" fill="none" xmlns="http://www.w3.org/2000/svg">
<rect x="3" y="8" width="18" height="13" rx="2" stroke="black" stroke-width="2"/>
<path d="M8 7C8 4.79086 9.79086 3 12 3V3V3C14.2091 3 16 4.79086 16 7V7.99527C16 7.99788 15.9979 8 15.9953 8H8.0071C8.00318 8 8 7.99682 8 7.9929V7Z" stroke="black" stroke-width="2"/>
<circle cx="12" cy="13" r="2" fill="black"/>
<path d="M10.9053 14.3787C10.961 14.1561 11.161 14 11.3904 14H12.6096C12.839 14 13.039 14.1561 13.0947 14.3787L13.8447 17.3787C13.9236 17.6943 13.6849 18 13.3596 18H10.6404C10.3151 18 10.0764 17.6943 10.1553 17.3787L10.9053 14.3787Z" fill="black"/>
</svg>
