<svg width="24" height="24" viewBox="0 0 24 24" fill="none" xmlns="http://www.w3.org/2000/svg">
<g clip-path="url(#clip0_52_7469)">
<path d="M8.71 7.475L7.495 11H6.24L5.02 7.475H6.07L6.87 10.02L7.665 7.475H8.71ZM9.99535 7.475V11H9.01535V7.475H9.99535ZM13.3384 8.65C13.3384 8.86333 13.2884 9.05833 13.1884 9.235C13.0918 9.40833 12.9434 9.54833 12.7434 9.655C12.5468 9.75833 12.3051 9.81 12.0184 9.81H11.5334V11H10.5534V7.475H12.0184C12.3018 7.475 12.5418 7.525 12.7384 7.625C12.9384 7.725 13.0884 7.86333 13.1884 8.04C13.2884 8.21667 13.3384 8.42 13.3384 8.65ZM11.9234 9.03C12.2001 9.03 12.3384 8.90333 12.3384 8.65C12.3384 8.39333 12.2001 8.265 11.9234 8.265H11.5334V9.03H11.9234Z" fill="black"/>
<path d="M20 19H4C3.73478 19 3.48043 18.8946 3.29289 18.7071C3.10536 18.5196 3 18.2652 3 18V6C3 5.73478 3.10536 5.48043 3.29289 5.29289C3.48043 5.10536 3.73478 5 4 5H20C20.2652 5 20.5196 5.10536 20.7071 5.29289C20.8946 5.48043 21 5.73478 21 6V18C21 18.2652 20.8946 18.5196 20.7071 18.7071C20.5196 18.8946 20.2652 19 20 19Z" stroke="black" stroke-width="2" stroke-linecap="round" stroke-linejoin="round"/>
<path d="M20.9995 6.00049L14.3747 11.9532C13.0878 13.1095 13.043 15.1116 14.277 16.3243L16.9998 19.0002" stroke="black" stroke-width="2"/>
</g>
<defs>
<clipPath id="clip0_52_7469">
<rect width="24" height="24" fill="white"/>
</clipPath>
</defs>
</svg>
