<svg width="24" height="24" viewBox="0 0 24 24" fill="none" xmlns="http://www.w3.org/2000/svg">
<path d="M20 19H4C3.73478 19 3.48043 18.8946 3.29289 18.7071C3.10536 18.5196 3 18.2652 3 18V4C3 3.73478 3.10536 3.48043 3.29289 3.29289C3.48043 3.10536 3.73478 3 4 3H20C20.2652 3 20.5196 3.10536 20.7071 3.29289C20.8946 3.48043 21 3.73478 21 4V18C21 18.2652 20.8946 18.5196 20.7071 18.7071C20.5196 18.8946 20.2652 19 20 19ZM8 19H6V21H8V19ZM16 21H18V19H16V21Z" stroke="black" stroke-width="1.5" stroke-linecap="round" stroke-linejoin="round"/>
<path d="M6 6H9" stroke="black" stroke-width="1.5" stroke-linecap="round"/>
<path d="M17 12C17 11.4067 16.8241 10.8266 16.4944 10.3333C16.1648 9.83994 15.6962 9.45542 15.1481 9.22836C14.5999 9.0013 13.9967 8.94189 13.4147 9.05764C12.8328 9.1734 12.2982 9.45912 11.8787 9.87868C11.4591 10.2982 11.1734 10.8328 11.0576 11.4147C10.9419 11.9967 11.0013 12.5999 11.2284 13.1481C11.4554 13.6962 11.8399 14.1648 12.3333 14.4944C12.8266 14.8241 13.4067 15 14 15M17 12C17 12.7956 16.6839 13.5587 16.1213 14.1213C15.5587 14.6839 14.7956 15 14 15M17 12H18M14 15V16M14 9V8M11 12H8" stroke="black" stroke-width="1.5" stroke-linecap="round" stroke-linejoin="round"/>
</svg>
