<svg width="24" height="24" viewBox="0 0 24 24" fill="none" xmlns="http://www.w3.org/2000/svg">
<path d="M14 14.5739V13.415M13.9996 10.6617V9.50284M6.17647 5H12.0009C12.034 6.15986 13.0003 7.09011 14.1875 7.09011C15.3747 7.09011 16.341 6.15986 16.3741 5H17.8235C19.5778 5 21 6.3988 21 8.12431V15.8757C21 17.6012 19.5778 19 17.8235 19H16.3741C16.341 17.8401 15.3747 16.9099 14.1875 16.9099C13.0003 16.9099 12.034 17.8401 12.0009 19H6.17648C4.42217 19 3.00001 17.6012 3.00001 15.8757L3 8.12431C3 6.3988 4.42215 5 6.17647 5Z" stroke="black" stroke-width="1.5" stroke-linecap="round" stroke-linejoin="round"/>
</svg>
