<svg width="24" height="24" viewBox="0 0 24 24" fill="none" xmlns="http://www.w3.org/2000/svg">
<path d="M16 16.6667L18 20M8 16.6667L6 20M20 16.6667H4C3.73478 16.6667 3.48043 16.573 3.29289 16.4063C3.10536 16.2396 3 16.0135 3 15.7778V4.88889C3 4.65314 3.10536 4.42705 3.29289 4.26035C3.48043 4.09365 3.73478 4 4 4H20C20.2652 4 20.5196 4.09365 20.7071 4.26035C20.8946 4.42705 21 4.65314 21 4.88889V15.7778C21 16.0135 20.8946 16.2396 20.7071 16.4063C20.5196 16.573 20.2652 16.6667 20 16.6667Z" stroke="black" stroke-width="1.5" stroke-linecap="round" stroke-linejoin="round"/>
<path d="M17.4929 8L15.5009 13H13.7889L11.7969 8H13.2529L14.6449 11.775L16.0449 8H17.4929Z" fill="black"/>
<path d="M11.5354 8V8.97579H10.0474V13H8.67941V8.97579H7.19141V8H11.5354Z" fill="black"/>
</svg>
