<svg width="24" height="24" viewBox="0 0 24 24" fill="none" xmlns="http://www.w3.org/2000/svg">
<path d="M12.77 12.5953L10.632 16.2956M16.6475 4.86963C14.8366 5.9737 11.174 8.86154 11.0107 11.5803M17.5271 5.37708C17.5158 7.51935 16.9125 12.1721 14.5896 13.645M3 18.339L5.2354 17.3563C6.60132 16.7559 8.10633 16.5428 9.58541 16.7406L9.65387 16.7497C11.1557 16.9505 12.5715 17.5668 13.7413 18.5291L15.5294 20M7.29372 9.43594L18.2463 15.7546C18.8657 16.1119 19.6578 15.8999 20.0155 15.2809C22.0422 11.7732 20.8395 7.28802 17.3291 5.26289L16.8453 4.98375C13.335 2.95861 8.84634 4.16042 6.81965 7.66806C6.462 8.28706 6.67425 9.07856 7.29372 9.43594Z" stroke="black" stroke-width="1.5" stroke-linecap="round" stroke-linejoin="round"/>
</svg>
