<svg width="24" height="24" viewBox="0 0 24 24" fill="none" xmlns="http://www.w3.org/2000/svg">
<path d="M6.15406 21H15.8459C17.0359 21 18 19.658 18 18H4C4 19.658 4.96272 21 6.15406 21Z" stroke="black" stroke-width="1.5" stroke-linecap="round" stroke-linejoin="round"/>
<path d="M17.1616 10H19.0535C19.576 10 20 10.6705 20 11.5V13C20 14.6575 19.1532 16 18.1081 16H17" stroke="black" stroke-width="1.5" stroke-linecap="round" stroke-linejoin="round"/>
<path d="M13.4544 18C15.414 18 17 16.2107 17 14V10H4V14C4 16.2107 5.58599 18 7.54558 18" stroke="black" stroke-width="1.5" stroke-linecap="round" stroke-linejoin="round"/>
<path d="M8.5 3C10.2321 4.33333 6.76795 5.66667 8.5 7" stroke="black" stroke-width="1.5" stroke-linecap="round" stroke-linejoin="round"/>
<path d="M12.5 5C14.2321 6.0005 10.7679 6.9995 12.5 8" stroke="black" stroke-width="1.5" stroke-linecap="round" stroke-linejoin="round"/>
</svg>
