<svg width="24" height="24" viewBox="0 0 24 24" fill="none" xmlns="http://www.w3.org/2000/svg">
<g id="millusticon / 24 / Calendar">
<g id="Shape">
<path fill-rule="evenodd" clip-rule="evenodd" d="M9 4C9 3.44772 8.55229 3 8 3C7.44772 3 7 3.44772 7 4V5.00003C6.54097 5.00031 6.14075 5.00314 5.80498 5.03057C5.40963 5.06287 5.01641 5.13419 4.63803 5.32698C4.07355 5.6146 3.6146 6.07354 3.32698 6.63803C3.13419 7.01641 3.06287 7.40963 3.03057 7.80497C3.01363 8.01239 3.00607 8.2444 3.0027 8.49967C2.99906 8.77591 3.22407 9 3.50033 9H20.4997C20.7759 9 21.0009 8.77591 20.9973 8.49968C20.9939 8.2444 20.9864 8.01239 20.9694 7.80497C20.9371 7.40963 20.8658 7.01641 20.673 6.63803C20.3854 6.07354 19.9265 5.6146 19.362 5.32698C18.9836 5.13419 18.5904 5.06287 18.195 5.03057C17.8593 5.00314 17.459 5.00031 17 5.00003V4C17 3.44772 16.5523 3 16 3C15.4477 3 15 3.44772 15 4V5H9V4ZM21 10.5C21 10.2239 20.7761 10 20.5 10H3.5C3.22386 10 3 10.2239 3 10.5V16.8386C2.99998 17.3657 2.99997 17.8205 3.03057 18.195C3.06287 18.5904 3.13419 18.9836 3.32698 19.362C3.6146 19.9265 4.07355 20.3854 4.63803 20.673C5.01641 20.8658 5.40963 20.9371 5.80498 20.9694C6.17951 21 6.63438 21 7.16146 21H16.8387C17.3658 21 17.8205 21 18.195 20.9694C18.5904 20.9371 18.9836 20.8658 19.362 20.673C19.9265 20.3854 20.3854 19.9265 20.673 19.362C20.8658 18.9836 20.9371 18.5904 20.9694 18.195C21 17.8205 21 17.3657 21 16.8386L21 10.5Z" fill="#7DA8EA"/>
<path d="M3 16.8386V10.5C3 10.2239 3.22386 10 3.5 10H20.5C20.7761 10 21 10.2239 21 10.5L21 16.8386C21 17.3657 21 17.8205 20.9694 18.195C20.9371 18.5904 20.8658 18.9836 20.673 19.362C20.3854 19.9265 19.9265 20.3854 19.362 20.673C18.9836 20.8658 18.5904 20.9371 18.195 20.9694C17.8205 21 17.3658 21 16.8387 21H7.16146C6.63438 21 6.17951 21 5.80498 20.9694C5.40963 20.9371 5.01641 20.8658 4.63803 20.673C4.07355 20.3854 3.6146 19.9265 3.32698 19.362C3.13419 18.9836 3.06287 18.5904 3.03057 18.195C2.99997 17.8205 2.99998 17.3657 3 16.8386Z" fill="#7DA8EA"/>
</g>
<path id="Shape_2" d="M7.99734 3C8.54963 3 8.99734 3.44772 8.99734 4V5H14.9973V4C14.9973 3.44772 15.4451 3 15.9973 3C16.5496 3 16.9973 3.44772 16.9973 4V5.00003C17.4564 5.00031 17.8566 5.00314 18.1924 5.03057C18.5877 5.06287 18.9809 5.13419 19.3593 5.32698C19.9238 5.6146 20.3827 6.07354 20.6704 6.63803C20.8632 7.01641 20.9345 7.40963 20.9668 7.80497C20.9837 8.01239 20.9913 8.2444 20.9946 8.49968C20.9983 8.77591 20.7733 9 20.497 9H3.49768C3.22142 9 2.9964 8.77591 3.00004 8.49967C3.00341 8.2444 3.01097 8.01239 3.02792 7.80497C3.06022 7.40963 3.13153 7.01641 3.32433 6.63803C3.61195 6.07354 4.07089 5.6146 4.63537 5.32698C5.01375 5.13419 5.40697 5.06287 5.80232 5.03057C6.13809 5.00314 6.53831 5.00031 6.99734 5.00003V4C6.99734 3.44772 7.44506 3 7.99734 3Z" fill="#002394"/>
</g>
</svg>
