<svg width="24" height="24" viewBox="0 0 24 24" fill="none" xmlns="http://www.w3.org/2000/svg">
<path fill-rule="evenodd" clip-rule="evenodd" d="M4.73699 8.1512C4.68916 8.1972 4.64204 8.24318 4.59564 8.28908C3.78191 9.09406 3.16745 9.89629 2.75576 10.4975C2.54933 10.7989 2.39232 11.0521 2.28531 11.233C2.23177 11.3235 2.19064 11.3961 2.16198 11.4478C2.14765 11.4736 2.13644 11.4943 2.12834 11.5093L2.11854 11.5277L2.11539 11.5337L2.11426 11.5358L2.1138 11.5367C2.1136 11.5371 2.11342 11.5374 3 12L2.11342 11.5374C1.96219 11.8273 1.96219 12.1727 2.11342 12.4626L3 12C2.11342 12.4626 2.1136 12.4629 2.1138 12.4633L2.11426 12.4642L2.11539 12.4663L2.11854 12.4723L2.12834 12.4907C2.13644 12.5057 2.14765 12.5264 2.16198 12.5522C2.19064 12.6039 2.23177 12.6765 2.28531 12.767C2.39232 12.9479 2.54933 13.2011 2.75576 13.5025C3.16745 14.1037 3.78191 14.9059 4.59564 15.7109C6.21435 17.3122 8.70274 19 12 19C13.1181 19 14.1431 18.8059 15.0728 18.487L13.4444 16.8586C12.9846 16.9498 12.503 17 12 17C9.4277 17 7.41609 15.6878 6.00219 14.2891C5.29961 13.5941 4.76461 12.8963 4.40593 12.3725C4.31143 12.2345 4.2296 12.1092 4.16059 12C4.2296 11.8908 4.31143 11.7655 4.40593 11.6275C4.76461 11.1037 5.29961 10.4059 6.00219 9.71092C6.05124 9.66239 6.10101 9.61398 6.1515 9.56571L4.73699 8.1512ZM15.5326 16.1184C16.4912 15.6211 17.3143 14.9652 17.9978 14.2891C18.7004 13.5941 19.2354 12.8963 19.5941 12.3725C19.6886 12.2345 19.7704 12.1092 19.8394 12C19.7704 11.8908 19.6886 11.7655 19.5941 11.6275C19.2354 11.1037 18.7004 10.4059 17.9978 9.71092C16.5839 8.31222 14.5723 7 12 7C10.3382 7 8.91047 7.54765 7.72669 8.31247L6.28625 6.87204C7.7807 5.82679 9.69223 5 12 5C15.2973 5 17.7857 6.68778 19.4044 8.28908C20.2181 9.09406 20.8325 9.89629 21.2442 10.4975C21.4507 10.7989 21.6077 11.0521 21.7147 11.233C21.7682 11.3235 21.8094 11.3961 21.838 11.4478C21.8523 11.4736 21.8636 11.4943 21.8717 11.5093L21.8815 11.5277L21.8846 11.5337L21.8857 11.5358L21.8862 11.5367C21.8864 11.5371 21.8866 11.5374 21 12C21.8866 12.4626 21.8864 12.4629 21.8862 12.4633L21.8857 12.4642L21.8846 12.4663L21.8815 12.4723L21.8717 12.4907C21.8636 12.5057 21.8523 12.5264 21.838 12.5522C21.8094 12.6039 21.7682 12.6765 21.7147 12.767C21.6077 12.9479 21.4507 13.2011 21.2442 13.5025C20.8325 14.1037 20.2181 14.9059 19.4044 15.7109C18.7461 16.3621 17.944 17.0276 17.0022 17.588L15.5326 16.1184ZM21 12L21.8866 11.5374C22.0378 11.8273 22.0378 12.1727 21.8866 12.4626L21 12Z" fill="black"/>
<path fill-rule="evenodd" clip-rule="evenodd" d="M8.52435 11.585C8.50827 11.7211 8.5 11.8596 8.5 12C8.5 13.933 10.067 15.5 12 15.5C12.1404 15.5 12.2789 15.4917 12.415 15.4757L8.52435 11.585ZM13.9605 14.8998C14.8895 14.2705 15.5 13.2066 15.5 12C15.5 10.067 13.933 8.5 12 8.5C10.7934 8.5 9.72947 9.11053 9.10018 10.0395L13.9605 14.8998Z" fill="black"/>
<path d="M4 4L20 20" stroke="black" stroke-width="2" stroke-linecap="round"/>
</svg>
