<svg width="28" height="28" viewBox="0 0 28 28" fill="none" xmlns="http://www.w3.org/2000/svg">
<path d="M7.94531 3.5V5.30021M19.8342 3.5V5.29999" stroke="#7DA8EA" stroke-width="2" stroke-linecap="round" stroke-linejoin="round"/>
<path d="M8.16699 24.4998C6.234 24.4998 4.66699 22.888 4.66699 20.8998V8.89979C4.66699 6.91157 6.234 5.2998 8.16699 5.2998H19.8337C21.7667 5.2998 23.3337 6.91157 23.3337 8.89979L23.3337 20.8998C23.3337 22.888 21.7667 24.4998 19.8337 24.4998H8.16699Z" fill="#002394" stroke="#002394" stroke-width="1.5" stroke-linecap="round" stroke-linejoin="round"/>
<path d="M4.66797 10.5V8.89979C4.66797 6.91157 6.23497 5.2998 8.16797 5.2998H19.8346C21.7676 5.2998 23.3346 6.91157 23.3346 8.89979L23.3346 10.5H4.66797Z" fill="#7DA8EA" stroke="#7DA8EA" stroke-width="1.5" stroke-linecap="round" stroke-linejoin="round"/>
<path d="M11.0859 17.6002L12.8359 19.4002L16.9193 15.2002" stroke="white" stroke-width="2" stroke-linecap="round" stroke-linejoin="round"/>
</svg>
