<svg width="12" height="12" viewBox="0 0 12 12" fill="none" xmlns="http://www.w3.org/2000/svg">
<path d="M5.55587 4.31203L7.68782 6.44399L3.93176 10.2H1.7998V8.06809L5.55587 4.31203ZM10.0511 3.36673L8.63312 1.94878C8.58638 1.90165 8.53076 1.86425 8.46949 1.83872C8.40822 1.81319 8.3425 1.80005 8.27612 1.80005C8.20974 1.80005 8.14402 1.81319 8.08275 1.83872C8.02147 1.86425 7.96586 1.90165 7.91912 1.94878L6.471 3.3969L8.60295 5.52886L10.0511 4.08074C10.0982 4.03399 10.1356 3.97838 10.1611 3.91711C10.1867 3.85583 10.1998 3.79011 10.1998 3.72373C10.1998 3.65736 10.1867 3.59164 10.1611 3.53036C10.1356 3.46909 10.0982 3.41348 10.0511 3.36673Z" stroke="black" stroke-linecap="round" stroke-linejoin="round"/>
</svg>
