<svg width="12" height="12" viewBox="0 0 12 12" fill="none" xmlns="http://www.w3.org/2000/svg">
<path d="M2.40039 2.3999V9.04591C2.40039 9.13103 2.43654 9.21213 2.49984 9.26903L3.3349 10.0196C3.44894 10.1221 3.62195 10.1221 3.736 10.0196L4.56737 9.27234C4.68142 9.16982 4.85442 9.16982 4.96847 9.27234L5.79984 10.0196C5.91389 10.1221 6.08689 10.1221 6.20094 10.0196L7.03231 9.27234C7.14636 9.16982 7.31936 9.16982 7.43341 9.27234L8.26479 10.0196C8.37883 10.1221 8.55184 10.1221 8.66589 10.0196L9.50094 9.26903C9.56424 9.21213 9.60039 9.13102 9.60039 9.04591V2.3999" stroke="black" stroke-linecap="round" stroke-linejoin="bevel"/>
<path d="M1.2002 2.3999H10.8002" stroke="black" stroke-linecap="round" stroke-linejoin="round"/>
<path d="M3.59961 6H4.49961" stroke="black" stroke-linecap="round" stroke-linejoin="round"/>
<path d="M7.5 6H8.4" stroke="black" stroke-linecap="round" stroke-linejoin="round"/>
<path d="M4.2002 4.80005L5.1002 7.80005L6.0002 4.80005" stroke="black" stroke-linecap="round" stroke-linejoin="round"/>
<path d="M7.8 4.80005L6.9 7.80005L6 4.80005" stroke="black" stroke-linecap="round" stroke-linejoin="round"/>
</svg>
