<svg width="12" height="12" viewBox="0 0 12 12" fill="none" xmlns="http://www.w3.org/2000/svg">
<path d="M3.48716 9.95341C3.68242 10.1487 3.99901 10.1487 4.19427 9.95341C4.38953 9.75814 4.38953 9.44156 4.19427 9.2463L3.48716 9.95341ZM1.68072 7.43986V6.93986C1.47849 6.93986 1.29617 7.06168 1.21878 7.24851C1.14139 7.43535 1.18416 7.65041 1.32716 7.79341L1.68072 7.43986ZM10.3207 7.93986C10.5968 7.93986 10.8207 7.716 10.8207 7.43986C10.8207 7.16371 10.5968 6.93986 10.3207 6.93986V7.93986ZM8.51421 2.04608C8.31895 1.85082 8.00236 1.85082 7.8071 2.04608C7.61184 2.24134 7.61184 2.55792 7.8071 2.75319L8.51421 2.04608ZM10.3207 4.55963V5.05963C10.5229 5.05963 10.7052 4.93781 10.7826 4.75097C10.86 4.56414 10.8172 4.34908 10.6742 4.20608L10.3207 4.55963ZM1.68066 4.05963C1.40452 4.05963 1.18066 4.28349 1.18066 4.55963C1.18066 4.83577 1.40452 5.05963 1.68066 5.05963L1.68066 4.05963ZM4.19427 9.2463L2.03427 7.0863L1.32716 7.79341L3.48716 9.95341L4.19427 9.2463ZM1.68072 7.93986H10.3207V6.93986H1.68072L1.68072 7.93986ZM7.8071 2.75319L9.9671 4.91318L10.6742 4.20608L8.51421 2.04608L7.8071 2.75319ZM10.3207 4.05963L1.68066 4.05963L1.68066 5.05963L10.3207 5.05963V4.05963Z" fill="black"/>
</svg>
