<svg width="125" height="24" fill="none" xmlns="http://www.w3.org/2000/svg"><path fill="#EEE" d="M0 0h125v24H0z"/><g clip-path="url(#a)"><path fill="#fff" d="M-124-405h1920v5383H-124z"/><g clip-path="url(#b)"><path fill="#EEE" d="M-64-64h1800v349H-64z"/><rect x="-39.5" y="-35.5" width="1297" height="95" rx="4.5" stroke="#9747FF" stroke-dasharray="10 5"/><path fill-rule="evenodd" clip-rule="evenodd" d="M68.527 21.488a4.31 4.31 0 0 1-1.27.29c-.69.044-1.768-.072-2.165-.738-.344-.577.042-1.308.31-1.817l.036-.067c.195-.37.373-.735.526-1.095.156-.358.26-.73.316-1.115.054-.385-.012-.794-.2-1.23-.223-.512-.656-.89-1.297-1.132-.642-.243-1.375-.326-2.205-.25l.275-.155a17.879 17.879 0 0 0 2.93-.73c.884-.306 1.63-.659 2.233-1.056.604-.397 1.059-.833 1.366-1.306.24-.375.365-.762.38-1.159-1.522-1.632-3.825-2.254-3.825-2.254l.07.627c.105.691-.111 1.39-.647 2.093-.535.706-1.239 1.409-2.108 2.112a39.741 39.741 0 0 1-2.882 2.112 37.51 37.51 0 0 0-1.97 1.411l.242-.585L64.995 0c-.271.204-.548.415-.83.63-1.587 1.207-3.31 2.517-4.893 3.376l-7.987 19.546h4.034l1.777-4.342c.426-.691.89-1.267 1.397-1.73.506-.46.998-.806 1.475-1.037.477-.23.896-.352 1.256-.365.36-.012.624.084.787.29.165.23.202.487.107.769a8.234 8.234 0 0 1-.414.98c-.183.372-.36.774-.536 1.21-.175.436-.26.91-.26 1.421.044.897.358 1.588.942 2.076.584.487 1.351.73 2.3.73.044 0 .087-.002.13-.004.053-.002.104-.005.155-.003 2.95-.054 5.217-1.91 5.217-1.91s-.051-.455-.07-.641c-.415.26-1.055.492-1.055.492Zm20.584-6.49s-4.328.867-6.955 1.22c0 0-1.115 1.037-.764 2.355 0 0 1.443-.875 3.223-1.255l-1.986 4.795c-.31.204-.63.35-.964.442-.334.09-.68.117-1.04.076-1.39-.143-2.256-.961-2.6-2.456-.343-1.494-.046-3.584.896-6.267.563-1.505 1.24-2.843 2.03-4.011.789-1.17 1.597-2.125 2.422-2.867.826-.742 1.626-1.267 2.4-1.57.775-.307 1.408-.356 1.895-.153.51.223.793.713.844 1.463.051.752-.175 1.657-.679 2.715a9.6 9.6 0 0 1-1.115 1.77 7.057 7.057 0 0 1-1.55 1.432s3.07-.107 4.537-.622c.287-.237.56-.53.806-.892.37-.546.599-1.173.728-1.82.238-1.2.121-2.213-.349-3.041-.591-1.036-1.509-1.666-2.753-1.892-1.492-.264-2.918-.183-4.277.245-1.36.427-2.6 1.088-3.717 1.983-1.12.894-2.1 1.977-2.945 3.249a16.629 16.629 0 0 0-1.962 4.01c-.448 1.343-.672 2.62-.67 3.828 0 1.21.22 2.271.655 3.188a5.082 5.082 0 0 0 1.955 2.18c.869.54 1.957.809 3.264.809.156 0 .317-.01.477-.027h.005c.2-.022.404-.059.611-.1l4.606-1.152 2.977-7.637-.005.002Zm35.018-9.095c-.146-.43-.565-.814-1.254-1.152a5.044 5.044 0 0 0-1.1-.36 5.944 5.944 0 0 0-1.171-.12c-.39 0-.774.03-1.149.09s-.696.15-.967.27a5.284 5.284 0 0 0-2.159 1.708c-.567.76-1.034 1.757-1.395 2.994h-2.317l-.587 1.169h2.384l-2.734 6.439a9.15 9.15 0 0 1-2.162 3.104l-.036.034-.028.026-.009.009c-1.818 1.55-2.768 1.81-3.089 1.85a.31.31 0 0 1-.066.005h-.06c-.378-.06-.548-.334-.517-.824.032-.49.229-1.163.592-2.021l5.302-12.442c-.543.2-1.164.355-1.858.463-.696.11-1.304.144-1.833.105l-3.853 9.027-1.11 2.62v.004c-1.288 2.088-3.196 2.774-4.42 2.997a8.071 8.071 0 0 0 1.073-1.108 7.27 7.27 0 0 0 .854-1.372c.239-.5.443-1.051.616-1.651.234-.84.307-1.637.224-2.39-.083-.75-.321-1.406-.708-1.967-.39-.561-.923-1.007-1.602-1.338-.68-.33-1.487-.495-2.422-.495-.828 0-1.616.13-2.371.39a7.971 7.971 0 0 0-2.098 1.093 7.692 7.692 0 0 0-1.687 1.69 7.577 7.577 0 0 0-1.108 2.215c-.29.92-.4 1.777-.333 2.576.068.798.297 1.497.69 2.094a4.113 4.113 0 0 0 1.63 1.421c.69.35 1.516.525 2.473.525.333 0 .654-.025.97-.059l-.094.03c2.055-.04 3.576-.368 4.674-.753.11-.037.214-.076.316-.115.088-.034.17-.069.253-.103l.063-.026c.068-.028.137-.057.2-.087 1.11-.512 1.561-1.014 1.561-1.014h-.008c.305-.265.541-.522.728-.76l-.01.074c-.014.102-.028.202-.034.299-.019.419.034.784.154 1.093.121.308.297.568.528.779.231.21.504.37.82.48.317.11.638.164.964.164.718 0 1.366-.14 1.945-.419.217-.105.65-.399 1.135-.752 0 0 1.08-.81 2.305-2.053l-1.356 3.192c.592-.159 1.241-.284 1.95-.374.708-.091 1.292-.116 1.755-.074l5.234-12.606h2.383l.555-1.169h-2.447c.129-.4.278-.828.443-1.289.166-.458.361-.877.577-1.257.363-.64.816-1.073 1.356-1.303.541-.23 1.069-.275 1.585-.135-.046.36-.015.654.097.884.112.23.263.405.451.525.187.12.384.184.594.193a.95.95 0 0 0 .555-.134c.262-.18.321-.483.175-.914l-.012.005Zm-25.974 9.595c-.117.62-.31 1.288-.577 2.006a17.99 17.99 0 0 1-.925 2.08 9.43 9.43 0 0 1-1.073 1.632 5.84 5.84 0 0 1-1.169 1.093c-.394.27-.786.404-1.178.404-.392 0-.684-.144-.881-.433-.195-.29-.312-.689-.346-1.198-.036-.51.02-1.088.166-1.738.143-.649.362-1.332.652-2.05.27-.699.572-1.348.908-1.946a9.85 9.85 0 0 1 1.066-1.558c.375-.439.755-.784 1.142-1.034.385-.25.774-.375 1.166-.375.348 0 .618.13.81.39.193.26.31.624.351 1.092.041.468.005 1.015-.112 1.632v.003Zm-53.9-3.952c1.032.1 1.716.58 2.052 1.438l.005-.007c.244.62.234 1.279-.024 1.977-.26.7-.628 1.539-1.108 2.516-.34.657-.642 1.262-.908 1.811a9.832 9.832 0 0 0-.577 1.421c-.07.238-.131.488-.126.742.007.39.39.589.762.591.54.005 1.04-.243 1.453-.502a3.4 3.4 0 0 0 .523-.373l-.426 1.103c-.44.37-.893.671-1.358.892-.548.26-1.17.39-1.801.39-.63 0-1.196-.204-1.7-.613-.503-.41-.771-.963-.805-1.662-.037-.517.08-1.08.35-1.69.268-.608.611-1.291 1.028-2.05.486-.9.859-1.65 1.12-2.248.26-.598.408-1.07.445-1.42.039-.349-.015-.589-.16-.719-.145-.13-.38-.184-.704-.164-.258.02-.587.15-.984.39-.399.24-.842.607-1.329 1.107-.49.5-1.015 1.142-1.58 1.93-.564.79-1.122 1.743-1.672 2.86l-1.775 4.283h-3.459l.796-1.948a9.942 9.942 0 0 1-.399.39c-.523.48-1.09.865-1.7 1.154a4.59 4.59 0 0 1-1.99.434 2.36 2.36 0 0 1-1.512-.525c-.443-.35-.699-.833-.767-1.453l-.056-.5c-.474.74-1.03 1.33-1.662 1.772-.648.448-1.393.674-2.242.674-.762 0-1.41-.204-1.945-.613-.533-.409-.901-.963-1.098-1.661-.197-.698-.217-1.507-.059-2.426.161-.916.553-1.884 1.179-2.903.628-.998 1.314-1.82 2.057-2.47.744-.65 1.511-1.132 2.302-1.453a5.753 5.753 0 0 1 2.384-.434c.798.03 1.562.216 2.297.554.575.28 1.203.41 1.887.39a5.463 5.463 0 0 0 1.96-.42l-3.102 7.008c-.813 1.897-.837 2.845-.075 2.845.501 0 1.12-.309 1.855-.929.664-.558 1.341-1.47 2.035-2.727l2.573-6.285c.487.081 1.068.067 1.74-.044.675-.11 1.317-.245 1.93-.404l-.671 1.588-.329.801c.767-.801 1.57-1.392 2.408-1.774 1.117-.51 2.105-.723 2.962-.644Zm-19.209 9.207c.792-.909 1.544-2.17 2.255-3.788v-.002l1.735-4.043a2.688 2.688 0 0 0-1.468-.135c-.523.091-1.049.302-1.577.63-.53.33-1.047.77-1.55 1.318a10.516 10.516 0 0 0-1.383 1.931c-.473.84-.806 1.593-1.003 2.262-.197.669-.288 1.242-.266 1.722.02.478.127.848.32 1.108.19.26.45.39.776.39.65-.02 1.37-.483 2.162-1.393ZM18.083 7.686l-.728-2.004v-.005s9.888 2.193 23.437-.382a61.305 61.305 0 0 0 9.16-2.38.235.235 0 0 1-.03.021l-.014.01C36.65 11.084 21.9 9.215 20.971 9.087h-.002c-.03-.007-.044-.007-.044-.007L16.35 20.376c-.343.818-.543 1.458-.601 1.916-.056.458.022.867.236 1.228-.675.198-1.322.255-1.94.164-.621-.09-1.076-.363-1.366-.823-.136-.24-.207-.5-.217-.78-.01-.279.02-.558.086-.838.065-.279.15-.553.25-.823.1-.27.202-.524.307-.764l1.436-3.504-6.62.33-2.834 7.067c-.482-.04-1.079-.01-1.785.09-.708.101-1.336.221-1.886.36l2.999-7.335-2.856.15L0 15.106h5.051L8.666 6.29C6.991 5.866 6.01 5.16 6.01 5.16c3.664-.26 7.551-2.737 7.551-2.737L9.194 13.27l-.74 1.838h6.526l3.102-7.422Z" fill="#fff"/></g></g><defs><clipPath id="a"><path fill="#fff" transform="translate(-124 -405)" d="M0 0h1920v5383H0z"/></clipPath><clipPath id="b"><path fill="#fff" transform="translate(-64 -64)" d="M0 0h1800v349H0z"/></clipPath></defs></svg>