<svg width="32" height="32" viewBox="0 0 32 32" fill="none" xmlns="http://www.w3.org/2000/svg">
<g id="1">
<path id="Rectangle 8" opacity="0.25" d="M3.24264 20.2426C0.899495 17.8995 0.899495 14.1005 3.24264 11.7574L11.7279 3.27208C14.0711 0.928932 17.8701 0.928933 20.2132 3.27208L28.6985 11.7574C31.0416 14.1005 31.0416 17.8995 28.6985 20.2426L20.2132 28.7279C17.8701 31.0711 14.0711 31.0711 11.7279 28.7279L3.24264 20.2426Z" fill="#9BC3FF"/>
<path id="Rectangle 10160" d="M9.12132 18.1213C7.94975 16.9497 7.94975 15.0503 9.12132 13.8787L13.364 9.63604C14.5355 8.46447 16.435 8.46447 17.6066 9.63604L21.8492 13.8787C23.0208 15.0503 23.0208 16.9497 21.8492 18.1213L17.6066 22.364C16.435 23.5355 14.5355 23.5355 13.364 22.364L9.12132 18.1213Z" fill="#9BC3FF"/>
</g>
</svg>
