<svg width="16" height="16" viewBox="0 0 16 16" fill="none" xmlns="http://www.w3.org/2000/svg">
<path d="M10.4649 4.44159C9.4036 4.36381 8.50494 5.03326 8.00094 5.03326C7.49694 5.03326 6.70494 4.45826 5.87294 4.47492C4.77961 4.49159 3.77161 5.11104 3.20627 6.08604C2.07027 8.0527 2.91561 10.9694 4.02227 12.5666C4.56361 13.3471 5.20894 14.2249 6.05694 14.1944C6.87294 14.161 7.18227 13.6666 8.16894 13.6666C9.1556 13.6666 9.43294 14.1944 10.2969 14.1777C11.1743 14.161 11.7316 13.3805 12.2703 12.5971C12.8916 11.6916 13.1476 10.8138 13.1636 10.7694C13.1449 10.761 11.4516 10.1138 11.4329 8.16659C11.4169 6.53881 12.7636 5.75826 12.8249 5.71937C12.0596 4.59715 10.8809 4.47215 10.4649 4.44159Z" fill="black"/>
<path d="M9.80939 3.38603C10.2601 2.84436 10.5641 2.08603 10.4814 1.33325C9.83339 1.35825 9.04939 1.76381 8.58273 2.30825C8.16673 2.78881 7.80139 3.56103 7.90006 4.29714C8.62273 4.3527 9.36139 3.93047 9.81206 3.38603" fill="black"/>
</svg>
