<svg width="16" height="16" viewBox="0 0 16 16" fill="none" xmlns="http://www.w3.org/2000/svg">
<path d="M9.33301 12.3333C11.6663 11.9999 11.333 11.6666 12.0521 9.64249L13.9997 3.33325" stroke="black" stroke-linecap="round" stroke-linejoin="round"/>
<path d="M11.8333 1.33325C11.8333 1.33325 11.3333 2.99992 10.4943 5.61014C9.79026 5.33142 7.40575 4.27749 6.05296 3.65816C3.68898 2.57494 2 4.60281 2 7.71218C2.00007 10.8216 2.66667 10.9999 4.33333 11.9999" stroke="black" stroke-linecap="round" stroke-linejoin="round"/>
<path d="M4.5 5.5H5.83333" stroke="black" stroke-linecap="round" stroke-linejoin="round"/>
<path d="M4 7H5.16667H6.5" stroke="black" stroke-linecap="round" stroke-linejoin="round"/>
<path d="M6.85904 10.9953V10.9513M9.2005 10.9444C9.2005 12.4714 6.85904 14.5075 6.85904 14.5075C6.85904 14.5075 4.51758 12.4714 4.51758 10.9444C4.51758 9.67933 5.56589 8.65381 6.85904 8.65381C8.1522 8.65381 9.2005 9.67933 9.2005 10.9444Z" stroke="black" stroke-linecap="round" stroke-linejoin="round"/>
</svg>
