<svg width="16" height="16" viewBox="0 0 16 16" fill="none" xmlns="http://www.w3.org/2000/svg">
<path d="M6 8.8001V1.6001L9.2 2.98378L6.03721 4.14222" stroke="black" stroke-linecap="round" stroke-linejoin="round"/>
<path d="M7.39192 8C7.78147 8.25714 8 8.61905 8 9.00952C8 9.79048 7.12589 10.4 5.99525 10.4C4.86461 10.4 4 9.79048 4 9.00952C4 8.63809 4.19002 8.29524 4.54157 8.04762" stroke="black" stroke-linecap="round" stroke-linejoin="round"/>
<path d="M4.25452 6.40588C2.10458 7.23287 1.23806 9.05531 1.73672 11.0998C2.02283 12.2714 2.91387 13.2285 4.10738 13.8181C4.89215 14.201 5.77501 14.4001 6.64153 14.4001C7.22193 14.4001 7.79416 14.3159 8.33369 14.1397C9.44545 13.7722 10.1321 13.0218 10.1812 12.1259C10.2057 11.72 10.0912 11.4138 10.0095 11.1764C9.93593 10.962 9.89505 10.8548 9.93593 10.7476C10.0504 10.3877 10.8433 10.3494 11.6117 10.3111C12.5845 10.2652 13.5818 10.2116 14.0805 9.54537C14.3993 9.12422 14.4811 8.64947 14.3176 8.17472C13.9579 7.14864 12.5437 6.39057 11.342 6.02302C11.342 6.02302 9.43727 5.47935 8.34186 5.62484" stroke="black" stroke-linecap="round" stroke-linejoin="round"/>
</svg>
