<svg width="16" height="16" viewBox="0 0 16 16" fill="none" xmlns="http://www.w3.org/2000/svg">
<path d="M13.1984 12.86C12.9407 12.9452 12.6609 13.0033 12.3731 13.0196C11.9257 13.0439 11.2253 12.9803 10.9676 12.6125C10.7336 12.2798 11.0182 11.8538 11.1921 11.5726C11.3186 11.3684 11.434 11.1669 11.5336 10.9681C11.6348 10.7706 11.7028 10.5651 11.7391 10.3528C11.7739 10.1404 11.7312 9.91459 11.6095 9.67388C11.464 9.39124 11.1826 9.18298 10.7668 9.0491C10.3494 8.91522 9.87352 8.86924 9.33439 8.91116L9.51305 8.82596C10.2071 8.72724 10.8411 8.59336 11.4166 8.42297C11.9905 8.25393 12.4743 8.05919 12.8664 7.84011C13.2585 7.62103 13.5542 7.38032 13.7534 7.11932C13.9099 6.91241 13.9905 6.69874 14 6.47966C13.0119 5.57901 11.5162 5.23551 11.5162 5.23551L11.5621 5.58171C11.63 5.96307 11.4893 6.34849 11.1415 6.73661C10.7937 7.12608 10.3368 7.5142 9.77233 7.90232C9.20633 8.29179 8.58182 8.67991 7.9004 9.06803C7.44664 9.32633 7.02135 9.58598 6.62135 9.84698L6.77787 9.52377L10.9043 1C9.73439 1.74919 8.39842 2.65255 7.18735 3.21107L2 13.9986H4.61976L5.77392 11.6023C6.05059 11.221 6.35257 10.9032 6.68142 10.6476C7.01028 10.3933 7.32965 10.2026 7.63953 10.0755C7.94941 9.9484 8.22134 9.88079 8.45534 9.87403C8.68933 9.86726 8.86008 9.92 8.96601 10.0336C9.07352 10.1607 9.09723 10.3027 9.03557 10.4582C8.97391 10.6138 8.88538 10.7936 8.7668 10.9992C8.64822 11.2047 8.53281 11.4265 8.41897 11.6672C8.30514 11.9079 8.2498 12.1689 8.2498 12.4516C8.27826 12.9465 8.48222 13.3279 8.86166 13.597C9.24111 13.8661 9.73913 14 10.3557 14C10.419 14 10.4806 13.9946 10.5407 13.9959C12.4569 13.9662 13.9289 12.9425 13.9289 12.9425C13.9289 12.9425 13.8957 12.6909 13.883 12.5882C13.6142 12.7315 13.1984 12.86 13.1984 12.86Z" fill="white"/>
</svg>
