<svg width="16" height="16" viewBox="0 0 16 16" fill="none" xmlns="http://www.w3.org/2000/svg">
<path d="M9.19961 8.8001C11.1878 8.8001 12.7996 8.08375 12.7996 7.2001C12.7996 6.31644 11.1878 5.6001 9.19961 5.6001C7.21138 5.6001 5.59961 6.31644 5.59961 7.2001C5.59961 8.08375 7.21138 8.8001 9.19961 8.8001Z" stroke="black" stroke-linecap="round" stroke-linejoin="round"/>
<path d="M5.59961 7.19995V12C5.59961 12.88 7.19961 13.6 9.19961 13.6C11.1996 13.6 12.7996 12.88 12.7996 12V7.19995" stroke="black" stroke-linecap="round" stroke-linejoin="round"/>
<path d="M12.7996 9.6001C12.7996 10.4801 11.1996 11.2001 9.19961 11.2001C7.19961 11.2001 5.59961 10.4801 5.59961 9.6001" stroke="black" stroke-linecap="round" stroke-linejoin="round"/>
<path d="M9.12039 3.20692C8.18558 2.63002 7.09745 2.35102 6.00039 2.40692C4.00839 2.40692 2.40039 3.12692 2.40039 4.00692C2.40039 4.47892 2.86439 4.90292 3.60039 5.20692" stroke="black" stroke-linecap="round" stroke-linejoin="round"/>
<path d="M3.60039 10.0071C2.86439 9.70308 2.40039 9.27908 2.40039 8.80708V4.00708" stroke="black" stroke-linecap="round" stroke-linejoin="round"/>
<path d="M3.60039 7.60698C2.86439 7.30298 2.40039 6.87898 2.40039 6.40698" stroke="black" stroke-linecap="round" stroke-linejoin="round"/>
</svg>
