<svg width="16" height="16" viewBox="0 0 16 16" fill="none" xmlns="http://www.w3.org/2000/svg">
<path d="M13.5 2.5C13.5 1.97397 13.0537 1.44433 12.4224 1.54633C11.7139 1.6608 11.0515 1.98451 10.5324 2.48284C9.87392 3.11499 9.5 3.97683 9.5 4.88V8.412C9.5 8.96428 9.94772 9.412 10.5 9.412H11.3V13.5C11.3 14.0523 11.7477 14.5 12.3 14.5H12.5C13.0523 14.5 13.5 14.0523 13.5 13.5V2.5Z" stroke="black"/>
<path d="M2 5.33474V5.33479C2.00008 6.07721 2.23047 6.80274 2.66057 7.3884L3.05998 7.09508L2.66057 7.3884C2.99219 7.83996 3.42875 8.18916 3.9275 8.39773C3.95909 8.41094 3.98108 8.43001 3.99238 8.44493C3.99759 8.45182 3.99943 8.45608 4 8.45793V13.5C4 14.0523 4.44771 14.5 5 14.5C5.55228 14.5 6 14.0523 6 13.5V8.45793C6.00057 8.45608 6.0024 8.45182 6.00762 8.44493C6.01892 8.43001 6.04091 8.41094 6.0725 8.39773C6.57125 8.18917 7.00781 7.83996 7.33943 7.3884C7.76953 6.80274 7.99992 6.07721 8 5.33479V5.33474V2.5C8 1.94772 7.55228 1.5 7 1.5C6.44772 1.5 6 1.94772 6 2.5C6 1.94772 5.55228 1.5 5 1.5C4.44771 1.5 4 1.94772 4 2.5C4 1.94772 3.55228 1.5 3 1.5C2.44772 1.5 2 1.94771 2 2.5V5.33474ZM5.99978 8.459C5.99975 8.45899 5.99978 8.45867 5.99997 8.45803L5.99978 8.459Z" stroke="black"/>
</svg>
