<svg width="16" height="16" viewBox="0 0 16 16" fill="none" xmlns="http://www.w3.org/2000/svg">
<path d="M7.4495 8.68533L8.86521 10.101L10.3034 8.66286C10.4832 8.48309 10.7978 8.48309 11 8.66286L12.8652 10.528C13.0449 10.7078 13.0449 11.0224 12.8652 11.2246L11.6292 12.4606C11.2023 12.8875 10.618 13.0673 10.0337 12.9774C9.04499 12.7977 7.4495 12.2359 5.60682 10.3932C3.76414 8.5505 3.17988 6.95501 3.02258 5.96626C2.93269 5.382 3.11246 4.77526 3.53943 4.37077L4.77537 3.13483C4.95514 2.95506 5.26974 2.95506 5.47199 3.13483L7.33714 4.99998C7.51691 5.17975 7.51691 5.49436 7.33714 5.6966L5.89895 7.13479L7.31467 8.5505L7.4495 8.68533Z" stroke="black" stroke-linecap="round" stroke-linejoin="round"/>
</svg>
