<svg width="20" height="20" viewBox="0 0 20 20" fill="none" xmlns="http://www.w3.org/2000/svg">
<path d="M18 5H2M18 5H14.4444M18 5V7.75C17.3333 8 16 8.9 16 10.5C16 11 16.4 12.25 18 13.25V16M2 5H5.55556M2 5V7.75C3.6 8.35 4 9.83333 4 10.5C4 12.1 2.66667 13 2 13.25V16M2 16H18M2 16H5.55556M18 16H14.4444" stroke="black" stroke-width="1.5" stroke-linecap="round" stroke-linejoin="round"/>
<path d="M8.31703 12.1281L11.6789 8.81675M8.01372 8.51365L8 8.5M12 12.5L11.9863 12.4864" stroke="#444444" stroke-width="1.5" stroke-linecap="round" stroke-linejoin="round"/>
</svg>
