<svg width="20" height="20" viewBox="0 0 20 20" fill="none" xmlns="http://www.w3.org/2000/svg">
<path fill-rule="evenodd" clip-rule="evenodd" d="M8.88818 5.92301C9.34563 5.23553 9.23066 4.31674 8.6179 3.76318C8.00515 3.20961 7.07942 3.18822 6.44175 3.71289C5.80408 4.23756 5.64679 5.15007 6.07199 5.85794C6.4972 6.56582 7.37667 6.85559 8.1394 6.53911C8.4442 6.41194 8.70468 6.19761 8.88818 5.92301Z" stroke="black" stroke-width="1.5" stroke-linecap="round" stroke-linejoin="round"/>
<path fill-rule="evenodd" clip-rule="evenodd" d="M8.88818 15.923C9.34563 15.2355 9.23066 14.3167 8.6179 13.7632C8.00515 13.2096 7.07942 13.1882 6.44175 13.7129C5.80408 14.2376 5.64679 15.1501 6.07199 15.8579C6.4972 16.5658 7.37667 16.8556 8.1394 16.5391C8.4442 16.4119 8.70468 16.1976 8.88818 15.923V15.923Z" stroke="black" stroke-width="1.5" stroke-linecap="round" stroke-linejoin="round"/>
<path fill-rule="evenodd" clip-rule="evenodd" d="M11.1131 10.923C10.6557 10.2355 10.7706 9.31674 11.3834 8.76318C11.9961 8.20961 12.9219 8.18822 13.5596 8.71289C14.1972 9.23756 14.3545 10.1501 13.9293 10.8579C13.5041 11.5658 12.6246 11.8556 11.8619 11.5391C11.5571 11.4119 11.2966 11.1976 11.1131 10.923V10.923Z" stroke="black" stroke-width="1.5" stroke-linecap="round" stroke-linejoin="round"/>
<path d="M9.88102 4.32275C9.46681 4.32275 9.13102 4.65854 9.13102 5.07275C9.13102 5.48697 9.46681 5.82275 9.88102 5.82275V4.32275ZM17.5012 5.82275C17.9154 5.82275 18.2512 5.48697 18.2512 5.07275C18.2512 4.65854 17.9154 4.32275 17.5012 4.32275V5.82275ZM5.83236 5.82275C6.24657 5.82275 6.58236 5.48697 6.58236 5.07275C6.58236 4.65854 6.24657 4.32275 5.83236 4.32275V5.82275ZM2.49902 4.32275C2.08481 4.32275 1.74902 4.65854 1.74902 5.07275C1.74902 5.48697 2.08481 5.82275 2.49902 5.82275V4.32275ZM9.88102 14.1486C9.46681 14.1486 9.13102 14.4844 9.13102 14.8986C9.13102 15.3128 9.46681 15.6486 9.88102 15.6486V14.1486ZM17.5012 15.6486C17.9154 15.6486 18.2512 15.3128 18.2512 14.8986C18.2512 14.4844 17.9154 14.1486 17.5012 14.1486V15.6486ZM5.83236 15.6486C6.24657 15.6486 6.58236 15.3128 6.58236 14.8986C6.58236 14.4844 6.24657 14.1486 5.83236 14.1486V15.6486ZM2.49902 14.1486C2.08481 14.1486 1.74902 14.4844 1.74902 14.8986C1.74902 15.3128 2.08481 15.6486 2.49902 15.6486V14.1486ZM10.1192 10.7357C10.5334 10.7357 10.8692 10.3999 10.8692 9.98568C10.8692 9.57146 10.5334 9.23568 10.1192 9.23568V10.7357ZM2.49902 9.23568C2.08481 9.23568 1.74902 9.57146 1.74902 9.98568C1.74902 10.3999 2.08481 10.7357 2.49902 10.7357V9.23568ZM14.1665 9.24973C13.7523 9.24973 13.4165 9.58552 13.4165 9.99973C13.4165 10.4139 13.7523 10.7497 14.1665 10.7497V9.24973ZM17.4998 10.7497C17.9141 10.7497 18.2498 10.4139 18.2498 9.99973C18.2498 9.58552 17.9141 9.24973 17.4998 9.24973V10.7497ZM9.88102 5.82275H17.5012V4.32275H9.88102V5.82275ZM5.83236 4.32275H2.49902V5.82275H5.83236V4.32275ZM9.88102 15.6486H17.5012V14.1486H9.88102V15.6486ZM5.83236 14.1486H2.49902V15.6486H5.83236V14.1486ZM10.1192 9.23568H2.49902V10.7357H10.1192V9.23568ZM14.1665 10.7497H17.4998V9.24973H14.1665V10.7497Z" fill="black"/>
</svg>
