<svg width="20" height="20" viewBox="0 0 20 20" fill="none" xmlns="http://www.w3.org/2000/svg">
<path fill-rule="evenodd" clip-rule="evenodd" d="M4.09464 5.15824C4.79576 4.44699 5.74654 4.04743 6.73792 4.04743C7.72929 4.04743 8.68007 4.44699 9.38119 5.15824L10.4766 6.26891L11.5721 5.15824C11.917 4.79588 12.3295 4.50685 12.7856 4.30802C13.2418 4.10918 13.7324 4.00452 14.2288 4.00014C14.7252 3.99577 15.2175 4.09176 15.677 4.28252C16.1365 4.47328 16.5539 4.75499 16.905 5.11121C17.256 5.46743 17.5336 5.89103 17.7216 6.35729C17.9096 6.82355 18.0042 7.32313 17.9999 7.82688C17.9955 8.33064 17.8924 8.82847 17.6965 9.29135C17.5005 9.75422 17.2157 10.1729 16.8586 10.5228L10.4766 17L4.09464 10.5228C3.39374 9.81137 3 8.84655 3 7.84054C3 6.83453 3.39374 5.8697 4.09464 5.15824Z" fill="url(#paint0_linear_116_7592)" stroke="#5B7BDA" stroke-width="1.5" stroke-linejoin="round"/>
<defs>
<linearGradient id="paint0_linear_116_7592" x1="3.25" y1="4.325" x2="20.3442" y2="10.3611" gradientUnits="userSpaceOnUse">
<stop stop-color="#294FCB"/>
<stop offset="1" stop-color="#7EB0FC"/>
</linearGradient>
</defs>
</svg>
