<svg width="20" height="20" viewBox="0 0 20 20" fill="none" xmlns="http://www.w3.org/2000/svg">
<path d="M6.06556 15.6615C6.25334 15.6615 6.40004 15.509 6.40004 15.3271V8.13282C6.40004 7.94504 6.24747 7.79834 6.06556 7.79834H4.33448C4.1467 7.79834 4 7.95091 4 8.13282V15.3271C4 15.5148 4.15257 15.6615 4.33448 15.6615H6.06556Z" fill="#002394"/>
<path d="M15.4412 7.79764H12.0788L12.5835 5.02204C12.648 4.65235 12.4837 4.30027 12.1492 4.11249C11.8147 3.92471 11.4275 3.97753 11.1399 4.22985L7.42543 7.60986C7.1555 7.84458 7.00293 8.19667 7.00293 8.54875V13.9943C7.00293 14.8863 7.7247 15.5904 8.59904 15.5904H13.4402C14.0446 15.5904 14.6021 15.2207 14.8192 14.6633L16.8848 9.93948C17.0843 9.45243 17.0197 8.91257 16.7322 8.47833C16.4446 8.0441 15.9576 7.79177 15.4353 7.79177L15.4412 7.79764Z" fill="#5B7BDA"/>
</svg>
