<svg width="20" height="20" viewBox="0 0 20 20" fill="none" xmlns="http://www.w3.org/2000/svg">
<path d="M14.5 15H12.5C12.2239 15 12 15.2239 12 15.5V18.5C12 18.7761 12.2239 19 12.5 19H14.5C14.7761 19 15 18.7761 15 18.5V15.5C15 15.2239 14.7761 15 14.5 15Z" fill="#002394"/>
<path d="M7.5 15H5.5C5.22386 15 5 15.2239 5 15.5V18.5C5 18.7761 5.22386 19 5.5 19H7.5C7.77614 19 8 18.7761 8 18.5V15.5C8 15.2239 7.77614 15 7.5 15Z" fill="#002394"/>
<rect x="3" y="2" width="14" height="15" rx="1" fill="#002394"/>
<rect x="4" y="5" width="12" height="8" rx="0.5" fill="#7DA8EA"/>
<rect x="2" y="4" width="2" height="4" rx="0.5" fill="#002394"/>
<rect x="16" y="4" width="2" height="4" rx="0.5" fill="#002394"/>
<path d="M6.5 16C7.05228 16 7.5 15.5523 7.5 15C7.5 14.4477 7.05228 14 6.5 14C5.94772 14 5.5 14.4477 5.5 15C5.5 15.5523 5.94772 16 6.5 16Z" fill="white"/>
<path d="M13.5 16C14.0523 16 14.5 15.5523 14.5 15C14.5 14.4477 14.0523 14 13.5 14C12.9477 14 12.5 14.4477 12.5 15C12.5 15.5523 12.9477 16 13.5 16Z" fill="white"/>
<rect x="7" y="3" width="6" height="1" rx="0.5" fill="#7DA8EA"/>
</svg>
