<svg width="20" height="20" viewBox="0 0 20 20" fill="none" xmlns="http://www.w3.org/2000/svg">
<path d="M4.38073 14.375H15.62C15.9323 14.375 16.1094 13.8585 15.9255 13.5626C15.4997 12.8774 15.0861 11.8674 15.0861 10.6495L15.1044 8.9835C15.1044 5.67891 12.8191 3 10 3C7.22185 3 4.96972 5.64002 4.96972 8.89664L4.95141 10.6495C4.95141 11.8591 4.52302 12.8637 4.07918 13.5486C3.88791 13.8437 4.06452 14.375 4.38073 14.375Z" fill="#5B7BDA"/>
<path d="M4.07918 13.5486L3.44978 13.1407L3.44978 13.1407L4.07918 13.5486ZM4.95141 10.6495L4.20141 10.6416V10.6495H4.95141ZM4.96972 8.89664L5.71972 8.90448V8.89664H4.96972ZM15.9255 13.5626L16.5625 13.1668L16.5625 13.1668L15.9255 13.5626ZM15.0861 10.6495L14.3361 10.6412V10.6495H15.0861ZM15.1044 8.9835L15.8544 8.99174V8.9835H15.1044ZM4.70858 13.9564C5.21067 13.1816 5.70141 12.0374 5.70141 10.6495H4.20141C4.20141 11.6809 3.83537 12.5457 3.44978 13.1407L4.70858 13.9564ZM5.70137 10.6573L5.71968 8.90448L4.21976 8.88881L4.20146 10.6416L5.70137 10.6573ZM16.5625 13.1668C16.1925 12.5714 15.8361 11.6969 15.8361 10.6495H14.3361C14.3361 12.038 14.8068 13.1835 15.2885 13.9585L16.5625 13.1668ZM15.836 10.6577L15.8543 8.99174L14.3544 8.97526L14.3361 10.6412L15.836 10.6577ZM15.8544 8.9835C15.8544 5.3809 13.3406 2.25 10 2.25V3.75C12.2975 3.75 14.3544 5.97692 14.3544 8.9835H15.8544ZM15.62 15.125C16.2378 15.125 16.5561 14.6323 16.6638 14.3358C16.7804 14.0144 16.8064 13.5593 16.5625 13.1668L15.2885 13.9585C15.2548 13.9044 15.2507 13.8628 15.2501 13.8508C15.2495 13.8384 15.2511 13.8315 15.2538 13.8238C15.2557 13.8186 15.2691 13.7823 15.3175 13.7378C15.3718 13.6878 15.4768 13.625 15.62 13.625V15.125ZM5.71972 8.89664C5.71972 5.93803 7.74342 3.75 10 3.75V2.25C6.70029 2.25 4.21972 5.34201 4.21972 8.89664H5.71972ZM4.38073 13.625C4.52694 13.625 4.6329 13.6902 4.68631 13.7402C4.73378 13.7848 4.74592 13.8201 4.74706 13.8233C4.74913 13.8292 4.75052 13.8348 4.74983 13.8465C4.74917 13.8576 4.74469 13.9007 4.70858 13.9564L3.44978 13.1407C3.19408 13.5353 3.21843 13.9985 3.33224 14.3216C3.43665 14.6181 3.75319 15.125 4.38073 15.125V13.625ZM15.62 13.625H4.38073V15.125H15.62V13.625Z" fill="#5B7BDA"/>
<path d="M8 17H12" stroke="#002394" stroke-width="1.5" stroke-linecap="round"/>
<path d="M12.9785 7.00098C12.9785 6.72483 13.2024 6.50098 13.4785 6.50098C13.7547 6.50098 13.9785 6.72483 13.9785 7.00098C13.9785 7.27712 13.7547 7.50098 13.4785 7.50098C13.2024 7.50098 12.9785 7.27712 12.9785 7.00098Z" fill="white" stroke="white" stroke-width="2"/>
<path d="M10.9873 4.38477C11.3973 4.50345 12.3093 4.96253 12.677 5.84935" stroke="white" stroke-linecap="round"/>
</svg>
