<svg width="20" height="20" viewBox="0 0 20 20" fill="none" xmlns="http://www.w3.org/2000/svg">
<path d="M10.4359 6.11328C12.8379 6.11328 17.0082 6.78635 17.8974 9.67402C18.1018 10.3362 17.9996 11.0093 17.601 11.6172C16.9775 12.5508 15.7203 12.6268 14.5142 12.7028C13.5636 12.7571 12.5722 12.8114 12.4188 13.3216C12.378 13.4736 12.4188 13.6256 12.5108 13.9295C12.6233 14.2661 12.7561 14.7003 12.7255 15.2757C12.6642 16.5458 11.8056 17.6206 10.4155 18.1308C9.74089 18.3805 9.02541 18.4999 8.2997 18.4999C7.20604 18.4999 6.10215 18.2176 5.13113 17.6748C3.63884 16.8389 2.52473 15.4819 2.16699 13.821C1.79902 12.1166 2.01367 10.2711 3.06645 8.88154C4.11924 7.49198 5.77507 6.86234 7.33891 6.49324C8.39169 6.24355 9.41381 6.12414 10.4359 6.12414V6.11328Z" fill="#002394"/>
<path d="M7.67429 10.9993C8.05248 11.2707 8.30801 11.6615 8.30801 12.1717C8.30801 13.0619 7.36766 13.7567 6.15133 13.7567C4.93501 13.7567 4.00488 13.0619 4.00488 12.1717C4.00488 10.4673 6.47841 10.1417 7.67429 10.9993Z" fill="white"/>
<path fill-rule="evenodd" clip-rule="evenodd" d="M5.50684 2.00151C5.50684 1.64264 5.87371 1.40062 6.20362 1.54187L10.5853 3.41774C10.989 3.59061 10.9897 4.16277 10.5863 4.33658L7.00764 5.87858V11.807C7.00764 12.2212 6.67186 12.557 6.25764 12.557C5.84343 12.557 5.50764 12.2212 5.50764 11.807V5.7944C5.50711 5.78481 5.50684 5.77513 5.50684 5.76537V2.00151Z" fill="#7DA8EA"/>
</svg>
