<svg width="20" height="20" viewBox="0 0 20 20" fill="none" xmlns="http://www.w3.org/2000/svg">
<path d="M5.64057 17.0359C4.58971 16.7398 4 16.338 4 15.9196V11.9727C4 12.391 4.58971 12.7928 5.64057 13.0889C6.93008 13.4139 8.26294 13.5696 9.59971 13.5515H10.3994C11.7365 13.5697 13.0696 13.4139 14.3594 13.0889C15.4103 12.7928 16 12.391 16 11.9727V15.9196C16 16.338 15.4103 16.7398 14.3594 17.0359C13.0696 17.3609 11.7365 17.5167 10.3994 17.4984H9.59971C8.26294 17.5166 6.93008 17.3609 5.64057 17.0359Z" fill="#002394" stroke="#002394" stroke-linejoin="round"/>
<path d="M5.64057 13.0891C4.58971 12.7931 4 12.3913 4 11.9729V8.02588C4 8.44426 4.58971 8.84606 5.64057 9.14209C6.93008 9.46708 8.26294 9.62282 9.59971 9.60468H10.3994C11.7365 9.62289 13.0696 9.46716 14.3594 9.14209C15.4103 8.84606 16 8.44426 16 8.02588V11.9729C16 12.3913 15.4103 12.7931 14.3594 13.0891C13.0696 13.4142 11.7365 13.5699 10.3994 13.5517H9.59971C8.26294 13.5698 6.93008 13.4141 5.64057 13.0891Z" fill="#7DA8EA" stroke="#7DA8EA" stroke-linejoin="round"/>
<path d="M5.64057 9.20677C4.58971 8.9531 4 8.60879 4 8.25027V4.07861C4 4.43713 4.58971 4.78145 5.64057 5.03512C6.93008 5.31361 8.26294 5.44706 9.59971 5.43152H10.3994C11.7365 5.44713 13.0696 5.31368 14.3594 5.03512C15.4103 4.78145 16 4.43713 16 4.07861V8.25027C16 8.60879 15.4103 8.9531 14.3594 9.20677C13.0696 9.48533 11.7365 9.61879 10.3994 9.60318H9.59971C8.26294 9.61872 6.93008 9.48527 5.64057 9.20677Z" fill="#002394" stroke="#002394" stroke-linejoin="round"/>
<ellipse cx="10" cy="4.0788" rx="6" ry="1.5788" fill="#7DA8EA" stroke="#7DA8EA" stroke-linejoin="round"/>
</svg>
