<svg width="20" height="20" viewBox="0 0 20 20" fill="none" xmlns="http://www.w3.org/2000/svg">
<mask id="path-1-inside-1_3765_54033" fill="white">
<path fill-rule="evenodd" clip-rule="evenodd" d="M16 4H8V16H16C17.1046 16 18 15.1046 18 14V12C17.3096 12 16.75 11.1046 16.75 10C16.75 8.89543 17.3096 8 18 8V6C18 4.89543 17.1046 4 16 4Z"/>
</mask>
<path fill-rule="evenodd" clip-rule="evenodd" d="M16 4H8V16H16C17.1046 16 18 15.1046 18 14V12C17.3096 12 16.75 11.1046 16.75 10C16.75 8.89543 17.3096 8 18 8V6C18 4.89543 17.1046 4 16 4Z" fill="#7DA8EA"/>
<path d="M8 4V2.5H6.5V4H8ZM8 16H6.5V17.5H8V16ZM18 12H19.5V10.5H18V12ZM18 8V9.5H19.5V8H18ZM8 5.5H16V2.5H8V5.5ZM9.5 16V4H6.5V16H9.5ZM16 14.5H8V17.5H16V14.5ZM16.5 14C16.5 14.2761 16.2761 14.5 16 14.5V17.5C17.933 17.5 19.5 15.933 19.5 14H16.5ZM16.5 12V14H19.5V12H16.5ZM18 10.5C18.1655 10.5 18.2893 10.5567 18.3541 10.6006C18.4113 10.6393 18.4138 10.6603 18.3881 10.6192C18.3331 10.5311 18.25 10.3161 18.25 10H15.25C15.25 10.7884 15.4468 11.5734 15.8441 12.2092C16.2283 12.8239 16.951 13.5 18 13.5V10.5ZM18.25 10C18.25 9.68387 18.3331 9.46885 18.3881 9.38078C18.4138 9.33974 18.4113 9.36073 18.3541 9.39944C18.2893 9.44331 18.1655 9.5 18 9.5V6.5C16.951 6.5 16.2283 7.17614 15.8441 7.79079C15.4468 8.42658 15.25 9.21156 15.25 10H18.25ZM16.5 6V8H19.5V6H16.5ZM16 5.5C16.2761 5.5 16.5 5.72386 16.5 6H19.5C19.5 4.067 17.933 2.5 16 2.5V5.5Z" fill="#7DA8EA" mask="url(#path-1-inside-1_3765_54033)"/>
<mask id="path-3-inside-2_3765_54033" fill="white">
<path fill-rule="evenodd" clip-rule="evenodd" d="M4 4C2.89543 4 2 4.89543 2 6V8C3.10457 8 4 8.89543 4 10C4 11.1046 3.10457 12 2 12V14C2 15.1046 2.89543 16 4 16H8.5V4H4Z"/>
</mask>
<path fill-rule="evenodd" clip-rule="evenodd" d="M4 4C2.89543 4 2 4.89543 2 6V8C3.10457 8 4 8.89543 4 10C4 11.1046 3.10457 12 2 12V14C2 15.1046 2.89543 16 4 16H8.5V4H4Z" fill="#002394"/>
<path d="M2 8H0.5V9.5H2V8ZM2 12V10.5H0.5V12H2ZM8.5 16V17.5H10V16H8.5ZM8.5 4H10V2.5H8.5V4ZM3.5 6C3.5 5.72386 3.72386 5.5 4 5.5V2.5C2.067 2.5 0.5 4.067 0.5 6H3.5ZM3.5 8V6H0.5V8H3.5ZM5.5 10C5.5 8.067 3.933 6.5 2 6.5V9.5C2.27614 9.5 2.5 9.72386 2.5 10H5.5ZM2 13.5C3.933 13.5 5.5 11.933 5.5 10H2.5C2.5 10.2761 2.27614 10.5 2 10.5V13.5ZM3.5 14V12H0.5V14H3.5ZM4 14.5C3.72386 14.5 3.5 14.2761 3.5 14H0.5C0.5 15.933 2.067 17.5 4 17.5V14.5ZM8.5 14.5H4V17.5H8.5V14.5ZM7 4V16H10V4H7ZM4 5.5H8.5V2.5H4V5.5Z" fill="#002394" mask="url(#path-3-inside-2_3765_54033)"/>
<path d="M6.0102 8.2402C6.0102 7.7002 6.16353 7.28353 6.4702 6.9902C6.78353 6.69686 7.18686 6.55019 7.6802 6.55019C8.17353 6.55019 8.57353 6.69686 8.8802 6.9902C9.18686 7.28353 9.3402 7.7002 9.3402 8.2402C9.3402 8.7802 9.18686 9.19686 8.8802 9.49019C8.57353 9.78353 8.17353 9.9302 7.6802 9.9302C7.18686 9.9302 6.78353 9.78353 6.4702 9.49019C6.16353 9.19686 6.0102 8.7802 6.0102 8.2402ZM12.8002 6.66019L8.9502 13.7002H7.3002L11.1502 6.66019H12.8002ZM7.6702 7.5502C7.3502 7.5502 7.1902 7.7802 7.1902 8.2402C7.1902 8.69353 7.3502 8.9202 7.6702 8.9202C7.82353 8.9202 7.94353 8.86353 8.0302 8.75019C8.11686 8.63686 8.1602 8.46686 8.1602 8.2402C8.1602 7.7802 7.99686 7.5502 7.6702 7.5502ZM10.7702 12.1202C10.7702 11.5802 10.9235 11.1635 11.2302 10.8702C11.5369 10.5769 11.9369 10.4302 12.4302 10.4302C12.9235 10.4302 13.3235 10.5769 13.6302 10.8702C13.9369 11.1635 14.0902 11.5802 14.0902 12.1202C14.0902 12.6602 13.9369 13.0769 13.6302 13.3702C13.3235 13.6635 12.9235 13.8102 12.4302 13.8102C11.9369 13.8102 11.5369 13.6635 11.2302 13.3702C10.9235 13.0769 10.7702 12.6602 10.7702 12.1202ZM12.4202 11.4302C12.2669 11.4302 12.1469 11.4869 12.0602 11.6002C11.9802 11.7135 11.9402 11.8869 11.9402 12.1202C11.9402 12.5735 12.1002 12.8002 12.4202 12.8002C12.5735 12.8002 12.6935 12.7435 12.7802 12.6302C12.8669 12.5169 12.9102 12.3469 12.9102 12.1202C12.9102 11.8935 12.8669 11.7235 12.7802 11.6102C12.6935 11.4902 12.5735 11.4302 12.4202 11.4302Z" fill="white"/>
</svg>
