<svg width="24" height="24" fill="none" xmlns="http://www.w3.org/2000/svg"><g fill="#7DA8EA"><path fill-rule="evenodd" clip-rule="evenodd" d="M9 4a1 1 0 1 0-2 0v1c-.459 0-.86.003-1.195.03-.395.033-.789.104-1.167.297a3 3 0 0 0-1.311 1.311c-.193.378-.264.772-.296 1.167-.017.207-.025.44-.028.695-.004.276.221.5.497.5h17a.496.496 0 0 0 .497-.5c-.003-.256-.01-.488-.028-.695-.032-.395-.103-.789-.296-1.167a3 3 0 0 0-1.311-1.311c-.378-.193-.772-.264-1.167-.296C17.859 5.003 17.459 5 17 5V4a1 1 0 1 0-2 0v1H9V4Zm12 6.5a.5.5 0 0 0-.5-.5h-17a.5.5 0 0 0-.5.5v6.339c0 .527 0 .982.03 1.356.033.395.104.789.297 1.167a3 3 0 0 0 1.311 1.311c.378.193.772.264 1.167.296.375.031.83.031 1.356.031h9.678c.527 0 .982 0 1.356-.03.395-.033.789-.104 1.167-.297a3 3 0 0 0 1.311-1.311c.193-.378.264-.772.296-1.167.031-.375.031-.83.031-1.356V10.5Z"/><path d="M3 16.839V10.5a.5.5 0 0 1 .5-.5h17a.5.5 0 0 1 .5.5v6.339c0 .527 0 .982-.03 1.356-.033.395-.104.789-.297 1.167a3 3 0 0 1-1.311 1.311c-.378.193-.772.264-1.167.296-.375.031-.83.031-1.356.031H7.16c-.527 0-.981 0-1.356-.03-.395-.033-.789-.104-1.167-.297a3 3 0 0 1-1.311-1.311c-.193-.378-.264-.772-.296-1.167A17.9 17.9 0 0 1 3 16.839Z"/></g><path d="M7.997 3a1 1 0 0 1 1 1v1h6V4a1 1 0 0 1 2 0v1c.46 0 .86.003 1.195.03.396.033.789.104 1.167.297a3 3 0 0 1 1.311 1.311c.193.378.264.772.297 1.167.017.207.024.44.028.695a.496.496 0 0 1-.498.5h-17A.496.496 0 0 1 3 8.5c.003-.256.011-.488.028-.695.032-.395.104-.789.296-1.167a3 3 0 0 1 1.311-1.311c.379-.193.772-.264 1.167-.296.336-.028.736-.03 1.195-.031V4a1 1 0 0 1 1-1Z" fill="#002394"/></svg>