<svg width="20" height="20" viewBox="0 0 20 20" fill="none" xmlns="http://www.w3.org/2000/svg">
<rect x="3.5" y="13" width="2" height="3" rx="1" fill="#002394"/>
<rect x="14.5" y="13" width="2" height="3" rx="1" fill="#002394"/>
<path d="M17.775 9.66531C17.5229 9.25885 17.055 9.00563 16.5457 9L3.45432 9.00082C2.945 9.00644 2.47712 9.25966 2.225 9.66612C2.07683 9.89741 1.99916 10.161 2.00012 10.4294V12.5714C1.9935 13.0716 2.2684 13.5395 2.72722 13.809C2.9454 13.9338 3.19728 13.9999 3.45432 14H16.5457C16.8027 13.9999 17.0546 13.9338 17.2728 13.809C17.7316 13.5395 18.0065 13.0716 17.9999 12.5714V10.4294C18.001 10.1608 17.9233 9.89683 17.775 9.66531Z" fill="#002394"/>
<path d="M6.59465 4C4.74633 4 4.85843 4.99962 4.17966 6.44876L3.5 8L16.5 7.99924L15.8212 6.44876C15.1416 4.99962 15.2528 4 13.4062 4H6.59465Z" fill="#7DA8EA" stroke="#7DA8EA" stroke-linecap="round" stroke-linejoin="round"/>
<circle cx="5" cy="11.5" r="1" fill="white"/>
<circle cx="15" cy="11.5" r="1" fill="white"/>
</svg>
