<svg width="20" height="20" viewBox="0 0 20 20" fill="none" xmlns="http://www.w3.org/2000/svg">
<path fill-rule="evenodd" clip-rule="evenodd" d="M7.5 3.33333C7.5 2.8731 7.12691 2.5 6.66667 2.5C6.20643 2.5 5.83333 2.8731 5.83333 3.33333V4.16669C5.45081 4.16692 5.11729 4.16928 4.83748 4.19214C4.50803 4.21906 4.18034 4.27849 3.86503 4.43915C3.39462 4.67884 3.01217 5.06129 2.77249 5.53169C2.61182 5.84701 2.55239 6.17469 2.52548 6.50414C2.51136 6.67699 2.50506 6.87033 2.50225 7.08306C2.49921 7.31326 2.68673 7.5 2.91695 7.5H17.0831C17.3133 7.5 17.5008 7.31326 17.4978 7.08306C17.4949 6.87034 17.4886 6.67699 17.4745 6.50414C17.4476 6.17469 17.3882 5.84701 17.2275 5.53169C16.9878 5.06129 16.6054 4.67884 16.135 4.43915C15.8197 4.27849 15.492 4.21906 15.1625 4.19214C14.8827 4.16928 14.5492 4.16692 14.1667 4.16669V3.33333C14.1667 2.8731 13.7936 2.5 13.3333 2.5C12.8731 2.5 12.5 2.8731 12.5 3.33333V4.16667H7.5V3.33333ZM17.5 8.75C17.5 8.51988 17.3135 8.33333 17.0833 8.33333H2.91667C2.68655 8.33333 2.5 8.51988 2.5 8.75V14.0322C2.49999 14.4714 2.49998 14.8504 2.52548 15.1625C2.55239 15.492 2.61182 15.8197 2.77249 16.135C3.01217 16.6054 3.39462 16.9878 3.86503 17.2275C4.18034 17.3882 4.50803 17.4476 4.83748 17.4745C5.14959 17.5 5.52865 17.5 5.96788 17.5H14.0322C14.4715 17.5 14.8504 17.5 15.1625 17.4745C15.492 17.4476 15.8197 17.3882 16.135 17.2275C16.6054 16.9878 16.9878 16.6054 17.2275 16.135C17.3882 15.8197 17.4476 15.492 17.4745 15.1625C17.5 14.8504 17.5 14.4714 17.5 14.0321L17.5 8.75Z" fill="url(#paint0_linear_3449_32966)"/>
<path d="M6.66445 2.5C7.12469 2.5 7.49779 2.8731 7.49779 3.33333V4.16667H12.4978V3.33333C12.4978 2.8731 12.8709 2.5 13.3311 2.5C13.7914 2.5 14.1645 2.8731 14.1645 3.33333V4.16669C14.547 4.16692 14.8805 4.16928 15.1603 4.19214C15.4898 4.21906 15.8174 4.27849 16.1328 4.43915C16.6032 4.67884 16.9856 5.06129 17.2253 5.53169C17.386 5.84701 17.4454 6.17469 17.4723 6.50414C17.4864 6.67699 17.4927 6.87034 17.4955 7.08306C17.4986 7.31326 17.3111 7.5 17.0808 7.5H2.91473C2.68451 7.5 2.497 7.31326 2.50004 7.08306C2.50284 6.87033 2.50914 6.67699 2.52326 6.50414C2.55018 6.17469 2.60961 5.84701 2.77027 5.53169C3.00996 5.06129 3.39241 4.67884 3.86281 4.43915C4.17813 4.27849 4.50581 4.21906 4.83527 4.19214C5.11508 4.16928 5.44859 4.16692 5.83112 4.16669V3.33333C5.83112 2.8731 6.20422 2.5 6.66445 2.5Z" fill="#949494"/>
<path d="M2.5 14.0323V8.75016C2.5 8.52004 2.68655 8.3335 2.91667 8.3335H17.0833C17.3135 8.3335 17.5 8.52004 17.5 8.75016L17.5 14.0323C17.5 14.4716 17.5 14.8505 17.4745 15.1627C17.4476 15.4921 17.3882 15.8198 17.2275 16.1351C16.9878 16.6055 16.6054 16.988 16.135 17.2277C15.8197 17.3883 15.492 17.4478 15.1625 17.4747C14.8504 17.5002 14.4715 17.5002 14.0323 17.5002H14.0322H5.96788H5.96783C5.52862 17.5002 5.14958 17.5002 4.83748 17.4747C4.50802 17.4478 4.18034 17.3883 3.86503 17.2277C3.39462 16.988 3.01217 16.6055 2.77249 16.1351C2.61182 15.8198 2.55239 15.4921 2.52548 15.1627C2.49998 14.8506 2.49999 14.4716 2.5 14.0323V14.0323Z" fill="#D4D4D4"/>
<defs>
<linearGradient id="paint0_linear_3449_32966" x1="10" y1="8" x2="10" y2="17.5" gradientUnits="userSpaceOnUse">
<stop stop-color="#293275"/>
<stop offset="1" stop-color="#7DA8EA"/>
</linearGradient>
</defs>
</svg>
