<svg width="20" height="20" viewBox="0 0 20 20" fill="none" xmlns="http://www.w3.org/2000/svg">
<g clip-path="url(#clip0_1068_30207)">
<path d="M4.27439 6.59394L9.19159 9.1504C9.38512 9.25102 9.62155 9.21456 9.77579 9.06032L11.3894 7.44675C11.6678 7.1683 11.53 6.69219 11.1459 6.60547L5.04882 5.22892C4.88148 5.19114 4.70646 5.24178 4.58515 5.36309L4.15148 5.79676C3.91251 6.03574 3.97453 6.43804 4.27439 6.59394Z" fill="#002394" stroke="#002394" stroke-linejoin="round"/>
<path d="M15.2729 15.4538L13.7573 8.74054C13.7195 8.57321 13.7702 8.39818 13.8915 8.27688L16.7224 5.44597C16.9434 5.22498 17.0675 4.92526 17.0675 4.61274C17.0675 4.30021 16.9434 4.00049 16.7224 3.7795C16.5014 3.55851 16.2017 3.43436 15.8891 3.43436C15.5766 3.43436 15.2769 3.55851 15.0559 3.7795L12.0301 6.80526L9.51597 9.31942L6.74655 12.0888C6.61816 12.2172 6.43026 12.2659 6.25568 12.2161L4.22892 11.6372C4.05433 11.5873 3.86643 11.636 3.73805 11.7644L3.55356 11.9489C3.32738 12.1751 3.36882 12.5525 3.63868 12.7243L6.07428 14.2742C6.13602 14.3135 6.18839 14.3658 6.22768 14.4276L7.77761 16.8632C7.94934 17.1331 8.32681 17.1745 8.55299 16.9483L8.73741 16.7639C8.86583 16.6355 8.91452 16.4475 8.8646 16.2729L8.28534 14.2468C8.23542 14.0722 8.28411 13.8842 8.41253 13.7558L10.6995 11.4688C10.9385 11.2299 11.3407 11.2919 11.4967 11.5917L13.9079 16.2283C14.0638 16.5281 14.4661 16.5901 14.705 16.3512L15.1388 15.9174C15.2601 15.7961 15.3107 15.6211 15.2729 15.4538Z" fill="#7DA8EA" stroke="#7DA8EA" stroke-linejoin="round"/>
</g>
<defs>
<clipPath id="clip0_1068_30207">
<rect width="20" height="20" fill="white"/>
</clipPath>
</defs>
</svg>
