<svg width="20" height="20" viewBox="0 0 20 20" fill="none" xmlns="http://www.w3.org/2000/svg">
<rect x="4.58301" y="2.5" width="13.3333" height="15" rx="2" fill="#002394"/>
<path fill-rule="evenodd" clip-rule="evenodd" d="M2.89944 10.4585L6.42444 7.65925C6.83806 7.44692 7.32867 7.44692 7.74229 7.65925L11.2673 10.4585C11.823 10.7941 12.133 11.4219 12.0616 12.0671L12.083 14.6428C12.083 16.2208 11.8038 17.5 10.2259 17.5H3.94015C2.36219 17.5 2.08301 16.2208 2.08301 14.6428L2.10515 12.0714C2.03196 11.4248 2.34223 10.7947 2.89944 10.4585Z" fill="#7DA8EA"/>
<path fill-rule="evenodd" clip-rule="evenodd" d="M5.41699 17.4998V15.8332C5.41699 14.9127 6.16318 14.1665 7.08366 14.1665C8.00413 14.1665 8.75033 14.9127 8.75033 15.8332V17.4998" fill="white"/>
</svg>
