<svg width="20" height="20" viewBox="0 0 20 20" fill="none" xmlns="http://www.w3.org/2000/svg">
<path d="M17.458 12.4067C17.2793 13.0735 16.5939 13.4693 15.9271 13.2906L2.87156 9.79242C2.5022 9.69342 2.2476 9.35575 2.25403 8.97342L2.31526 5.33377C2.32263 4.89544 2.73998 4.58074 3.16343 4.6942V4.6942C3.39488 4.75622 3.57599 4.93647 3.63909 5.16762L4.14835 7.0329C4.242 7.37592 4.51076 7.64341 4.85422 7.73544L7.22772 8.37144C7.88058 8.54637 8.51534 8.03671 8.48558 7.36148L8.29009 2.9262C8.2642 2.33872 8.81647 1.89529 9.38448 2.04749V2.04749C9.67282 2.12475 9.90142 2.34444 9.99008 2.62948L12.0259 9.17464C12.1278 9.50226 12.3905 9.75476 12.7219 9.84357L16.5741 10.8758C17.2409 11.0544 17.6367 11.7398 17.458 12.4067Z" fill="#7DA8EA" stroke="#7DA8EA" stroke-linecap="round" stroke-linejoin="round"/>
<rect x="2" y="15" width="16" height="2.5" rx="1.25" fill="#002394"/>
</svg>
