<svg width="20" height="20" viewBox="0 0 20 20" fill="none" xmlns="http://www.w3.org/2000/svg">
<path d="M17.2 15H2.8C2.58783 15 2.38434 14.9247 2.23431 14.7908C2.08429 14.6568 2 14.4752 2 14.2857V5.71429C2 5.52485 2.08429 5.34316 2.23431 5.20921C2.38434 5.07526 2.58783 5 2.8 5H17.2C17.4122 5 17.6157 5.07526 17.7657 5.20921C17.9157 5.34316 18 5.52485 18 5.71429V14.2857C18 14.4752 17.9157 14.6568 17.7657 14.7908C17.6157 14.9247 17.4122 15 17.2 15Z" fill="#002394"/>
<mask id="mask0_506_16275" style="mask-type:alpha" maskUnits="userSpaceOnUse" x="2" y="5" width="16" height="10">
<path d="M17.2 15H2.8C2.58783 15 2.38434 14.9247 2.23431 14.7908C2.08429 14.6568 2 14.4752 2 14.2857V5.71429C2 5.52485 2.08429 5.34316 2.23431 5.20921C2.38434 5.07526 2.58783 5 2.8 5H17.2C17.4122 5 17.6157 5.07526 17.7657 5.20921C17.9157 5.34316 18 5.52485 18 5.71429V14.2857C18 14.4752 17.9157 14.6568 17.7657 14.7908C17.6157 14.9247 17.4122 15 17.2 15Z" fill="white"/>
</mask>
<g mask="url(#mask0_506_16275)">
<rect width="10.001" height="10.001" rx="2" transform="matrix(0.699929 -0.714213 0.699929 0.714213 10.835 12)" fill="#7DA8EA"/>
</g>
<path d="M6.468 6.68L5.496 9.5H4.492L3.516 6.68H4.356L4.996 8.716L5.632 6.68H6.468ZM7.49628 6.68V9.5H6.71228V6.68H7.49628ZM10.1708 7.62C10.1708 7.79067 10.1308 7.94667 10.0508 8.088C9.97342 8.22667 9.85475 8.33867 9.69475 8.424C9.53742 8.50667 9.34408 8.548 9.11475 8.548H8.72675V9.5H7.94275V6.68H9.11475C9.34142 6.68 9.53342 6.72 9.69075 6.8C9.85075 6.88 9.97075 6.99067 10.0508 7.132C10.1308 7.27333 10.1708 7.436 10.1708 7.62ZM9.03875 7.924C9.26008 7.924 9.37075 7.82267 9.37075 7.62C9.37075 7.41467 9.26008 7.312 9.03875 7.312H8.72675V7.924H9.03875Z" fill="white"/>
</svg>
