<svg width="20" height="20" viewBox="0 0 20 20" fill="none" xmlns="http://www.w3.org/2000/svg">
<rect x="3" y="2" width="14" height="16" rx="1.5" fill="#002394"/>
<path d="M14.5 10C14.5 12.4853 12.4853 14.5 10 14.5V15.5C13.0376 15.5 15.5 13.0376 15.5 10H14.5ZM10 14.5C7.51472 14.5 5.5 12.4853 5.5 10H4.5C4.5 13.0376 6.96243 15.5 10 15.5V14.5ZM5.5 10C5.5 7.51472 7.51472 5.5 10 5.5V4.5C6.96243 4.5 4.5 6.96243 4.5 10H5.5ZM10 5.5C12.4853 5.5 14.5 7.51472 14.5 10H15.5C15.5 6.96243 13.0376 4.5 10 4.5V5.5ZM10 14.5C9.8634 14.5 9.69386 14.4388 9.49606 14.2476C9.29585 14.054 9.09272 13.7498 8.91128 13.3351C8.54906 12.5072 8.3125 11.3284 8.3125 10H7.3125C7.3125 11.433 7.56563 12.7542 7.99513 13.7359C8.20955 14.2261 8.47778 14.6541 8.80099 14.9665C9.12662 15.2814 9.53254 15.5 10 15.5V14.5ZM8.3125 10C8.3125 8.67157 8.54906 7.49281 8.91128 6.66488C9.09272 6.25016 9.29585 5.94595 9.49606 5.7524C9.69386 5.56117 9.8634 5.5 10 5.5V4.5C9.53254 4.5 9.12662 4.71865 8.80099 5.03345C8.47778 5.34593 8.20955 5.77395 7.99513 6.26406C7.56563 7.24576 7.3125 8.56701 7.3125 10H8.3125ZM10 15.5C10.4675 15.5 10.8734 15.2814 11.199 14.9665C11.5222 14.6541 11.7905 14.2261 12.0049 13.7359C12.4344 12.7542 12.6875 11.433 12.6875 10H11.6875C11.6875 11.3284 11.4509 12.5072 11.0887 13.3351C10.9073 13.7498 10.7041 14.054 10.5039 14.2476C10.3061 14.4388 10.1366 14.5 10 14.5V15.5ZM12.6875 10C12.6875 8.56701 12.4344 7.24576 12.0049 6.26406C11.7905 5.77395 11.5222 5.34593 11.199 5.03345C10.8734 4.71865 10.4675 4.5 10 4.5V5.5C10.1366 5.5 10.3061 5.56117 10.5039 5.7524C10.7041 5.94595 10.9073 6.25016 11.0887 6.66488C11.4509 7.49281 11.6875 8.67157 11.6875 10H12.6875Z" fill="#7DA8EA"/>
<ellipse cx="10" cy="10" rx="5" ry="2" stroke="#7DA8EA"/>
</svg>
