<svg width="20" height="20" viewBox="0 0 20 20" fill="none" xmlns="http://www.w3.org/2000/svg">
<path d="M5.69376 16.7071C6.08428 17.0976 6.71745 17.0976 7.10797 16.7071C7.4985 16.3166 7.4985 15.6834 7.10797 15.2929L5.69376 16.7071ZM2.80087 12.4L2.80087 11.4C2.39641 11.4 2.03177 11.6436 1.87699 12.0173C1.72221 12.391 1.80776 12.8211 2.09376 13.1071L2.80087 12.4ZM17.2008 13.4C17.7531 13.4 18.2008 12.9523 18.2008 12.4C18.2008 11.8477 17.7531 11.4 17.2008 11.4V13.4ZM14.3079 3.29253C13.9173 2.902 13.2842 2.902 12.8937 3.29253C12.5031 3.68305 12.5031 4.31621 12.8937 4.70674L14.3079 3.29253ZM17.2008 7.59963V8.59963C17.6052 8.59963 17.9699 8.35599 18.1246 7.98231C18.2794 7.60864 18.1939 7.17852 17.9079 6.89252L17.2008 7.59963ZM2.80078 6.59963C2.2485 6.59963 1.80078 7.04734 1.80078 7.59963C1.80078 8.15191 2.2485 8.59963 2.80078 8.59963V6.59963ZM7.10797 15.2929L3.50798 11.6929L2.09376 13.1071L5.69376 16.7071L7.10797 15.2929ZM2.80087 13.4H17.2008V11.4H2.80087L2.80087 13.4ZM12.8937 4.70674L16.4937 8.30673L17.9079 6.89252L14.3079 3.29253L12.8937 4.70674ZM17.2008 6.59963H2.80078V8.59963H17.2008V6.59963Z" fill="#002394"/>
</svg>
