<svg width="20" height="20" viewBox="0 0 20 20" fill="none" xmlns="http://www.w3.org/2000/svg">
<path d="M16.5347 2.28081C16.6362 2.26731 16.7503 2.35153 16.7503 2.5V17.4998C16.7503 17.6379 16.6384 17.7498 16.5003 17.7498H15.9447C15.8066 17.7498 15.6947 17.6379 15.6947 17.4998V12.0999C15.6947 11.6857 15.3589 11.3499 14.9447 11.3499H13.6113C13.4733 11.3499 13.3613 11.238 13.3613 11.0999V5.99996C13.3613 5.00318 13.7464 4.04858 14.4296 3.34583C15.0017 2.75746 15.7434 2.38601 16.5347 2.28081Z" fill="#7DA8EA" stroke="#7DA8EA" stroke-width="0.5"/>
<path d="M7.66677 17.5001V11.926C7.66677 11.6895 7.83375 11.4887 8.05868 11.4157C8.7787 11.1819 9.4201 10.7365 9.90126 10.1302C10.4682 9.41599 10.7778 8.52228 10.7779 7.60025V3.30029C10.7779 3.02415 10.5541 2.80029 10.2779 2.80029H9.72236C9.44621 2.80029 9.22236 3.02415 9.22236 3.30029V7.90024C9.22236 8.17638 8.9985 8.40024 8.72236 8.40024H8.16677C7.89063 8.40024 7.66677 8.17638 7.66677 7.90024V3.30029C7.66677 3.02415 7.44291 2.80029 7.16677 2.80029H6.61118C6.33504 2.80029 6.11118 3.02415 6.11118 3.30029V7.90024C6.11118 8.17638 5.88732 8.40024 5.61118 8.40024H5.05559C4.77945 8.40024 4.55559 8.17638 4.55559 7.90024V3.30029C4.55559 3.02415 4.33173 2.80029 4.05559 2.80029H3.5C3.22386 2.80029 3 3.02415 3 3.30029V7.60025C3.00011 8.52228 3.30979 9.41599 3.87669 10.1302C4.35785 10.7365 4.99924 11.1819 5.71927 11.4157C5.9442 11.4887 6.11118 11.6895 6.11118 11.926V17.5001C6.11118 17.7763 6.33504 18.0001 6.61118 18.0001H7.16677C7.44291 18.0001 7.66677 17.7763 7.66677 17.5001Z" fill="#002394" stroke="#002394" stroke-width="0.5"/>
</svg>
