<svg width="20" height="20" viewBox="0 0 20 20" fill="none" xmlns="http://www.w3.org/2000/svg">
<path d="M4.16634 9.66667C3.94533 9.66667 3.73337 9.57887 3.57709 9.42259C3.42081 9.26631 3.33301 9.05435 3.33301 8.83333V5.5C3.33301 4.83696 3.5964 4.20107 4.06524 3.73223C4.53408 3.26339 5.16997 3 5.83301 3C6.49605 3 7.13193 3.26339 7.60077 3.73223C8.06962 4.20107 8.33301 4.83696 8.33301 5.5C8.33301 5.72101 8.24521 5.93298 8.08893 6.08926C7.93265 6.24554 7.72069 6.33333 7.49967 6.33333C7.27866 6.33333 7.0667 6.24554 6.91042 6.08926C6.75414 5.93298 6.66634 5.72101 6.66634 5.5C6.66634 5.27899 6.57854 5.06702 6.42226 4.91074C6.26598 4.75446 6.05402 4.66667 5.83301 4.66667C5.61199 4.66667 5.40003 4.75446 5.24375 4.91074C5.08747 5.06702 4.99967 5.27899 4.99967 5.5V8.83333C4.99967 9.05435 4.91188 9.26631 4.7556 9.42259C4.59932 9.57887 4.38735 9.66667 4.16634 9.66667Z" fill="#002394" stroke="#002394" stroke-width="0.5"/>
<path d="M17.2 8H2.8C2.58783 8 2.38434 8.08429 2.23431 8.23431C2.08429 8.38434 2 8.58783 2 8.8C2 9.01217 2.08429 9.21566 2.23431 9.36569C2.38434 9.51571 2.58783 9.6 2.8 9.6V12C2.8 13.0609 3.22143 14.0783 3.97157 14.8284C4.72172 15.5786 5.73913 16 6.8 16H13.2C14.2609 16 15.2783 15.5786 16.0284 14.8284C16.7786 14.0783 17.2 13.0609 17.2 12V9.6C17.4122 9.6 17.6157 9.51571 17.7657 9.36569C17.9157 9.21566 18 9.01217 18 8.8C18 8.58783 17.9157 8.38434 17.7657 8.23431C17.6157 8.08429 17.4122 8 17.2 8Z" fill="#7DA8EA" stroke="#7DA8EA" stroke-width="1.5"/>
<path d="M16 12C16 11.7239 16.2239 11.5 16.5 11.5C16.7761 11.5 17 11.7239 17 12C17 12.2761 16.7761 12.5 16.5 12.5C16.2239 12.5 16 12.2761 16 12Z" fill="white" stroke="white" stroke-width="2"/>
<path d="M15.9316 13.3735C15.7603 13.7645 15.1859 14.6086 14.2586 14.8571" stroke="white" stroke-linecap="round"/>
<path d="M15.5 6C16.3284 6 17 5.32843 17 4.5C17 3.67157 16.3284 3 15.5 3C14.6716 3 14 3.67157 14 4.5C14 5.32843 14.6716 6 15.5 6Z" fill="#7DA8EA"/>
<path d="M17.5 3C17.7761 3 18 2.77614 18 2.5C18 2.22386 17.7761 2 17.5 2C17.2239 2 17 2.22386 17 2.5C17 2.77614 17.2239 3 17.5 3Z" fill="#7DA8EA"/>
</svg>
