<svg width="20" height="20" viewBox="0 0 20 20" fill="none" xmlns="http://www.w3.org/2000/svg">
<rect x="3.5" y="5" width="2" height="2" rx="0.5" fill="#002394" stroke="#002394" stroke-linecap="round"/>
<path d="M18 7.6C18 7.28174 17.8703 6.97652 17.6395 6.75147C17.4087 6.52643 17.0957 6.4 16.7692 6.4H13.3077L12.4615 4H7.53846L6.69231 6.4H3.23077C2.90435 6.4 2.5913 6.52643 2.36048 6.75147C2.12967 6.97652 2 7.28174 2 7.6V14.8C2 15.1183 2.12967 15.4235 2.36048 15.6485C2.5913 15.8736 2.90435 16 3.23077 16H16.7692C17.0957 16 17.4087 15.8736 17.6395 15.6485C17.8703 15.4235 18 15.1183 18 14.8V7.6Z" fill="#7DA8EA" stroke="#7DA8EA" stroke-linecap="round" stroke-linejoin="round"/>
<path d="M10 14C11.6569 14 13 12.6569 13 11C13 9.34315 11.6569 8 10 8C8.34315 8 7 9.34315 7 11C7 12.6569 8.34315 14 10 14Z" fill="#002394" stroke="#002394" stroke-linecap="round" stroke-linejoin="round"/>
<path d="M12 11.5C11.8287 11.891 11.2543 12.7351 10.327 12.9836" stroke="white" stroke-linecap="round"/>
</svg>
