<svg width="20" height="20" viewBox="0 0 20 20" fill="none" xmlns="http://www.w3.org/2000/svg">
<path d="M18.292 8.05875C18.4706 8.72558 18.075 9.411 17.4081 9.58967L10.8804 11.3387L4.35264 13.0878C3.98327 13.1868 3.59396 13.0217 3.40836 12.6874L1.64156 9.50477C1.42878 9.12147 1.63287 8.64026 2.05633 8.5268V8.5268C2.28777 8.46479 2.53473 8.53034 2.70495 8.69896L4.07863 10.0597C4.33124 10.3099 4.69773 10.4072 5.04118 10.3151L7.41469 9.67921C8.06755 9.50428 8.36244 8.74552 7.99905 8.17563L5.61213 4.43232C5.29596 3.93649 5.55253 3.27631 6.12055 3.12411V3.12411C6.4089 3.04685 6.71673 3.12281 6.93604 3.32534L11.9717 7.97574C12.2237 8.20852 12.5775 8.29582 12.9089 8.20702L16.7611 7.17484C17.4279 6.99617 18.1133 7.39189 18.292 8.05875Z" fill="#7DA8EA"/>
<path d="M17.4081 9.58967C18.075 9.411 18.4706 8.72558 18.292 8.05875C18.1133 7.39189 17.4279 6.99617 16.7611 7.17484L12.6427 8.27834C12.477 8.32274 12.3001 8.27909 12.1741 8.1627L6.7862 3.18696C6.66017 3.07057 6.48327 3.02692 6.31756 3.07132L5.63284 3.2548C5.30641 3.34226 5.15897 3.72164 5.34066 4.00658L8.36585 8.75086C8.54754 9.0358 8.40009 9.41518 8.07366 9.50265L4.76387 10.3894C4.59214 10.4355 4.4089 10.3868 4.28259 10.2617L2.63403 8.62871C2.50772 8.50359 2.32448 8.45496 2.15276 8.50097L1.84124 8.58443C1.52703 8.66862 1.3756 9.02567 1.53348 9.31008L3.40836 12.6874C3.59396 13.0217 3.98327 13.1868 4.35264 13.0878L10.8804 11.3387L17.4081 9.58967Z" fill="#7DA8EA"/>
<path d="M17.4081 9.58967C18.075 9.411 18.4706 8.72558 18.292 8.05875C18.1133 7.39189 17.4279 6.99617 16.7611 7.17484L12.6427 8.27834C12.477 8.32274 12.3001 8.27909 12.1741 8.1627L6.7862 3.18696C6.66017 3.07057 6.48327 3.02692 6.31756 3.07132L5.63284 3.2548C5.30641 3.34226 5.15897 3.72164 5.34066 4.00658L8.36585 8.75086C8.54754 9.0358 8.40009 9.41518 8.07366 9.50265L4.76387 10.3894C4.59214 10.4355 4.4089 10.3868 4.28259 10.2617L2.63403 8.62871C2.50772 8.50359 2.32448 8.45496 2.15276 8.50097L1.84124 8.58443C1.52703 8.66862 1.3756 9.02567 1.53348 9.31008L3.40836 12.6874C3.59396 13.0217 3.98327 13.1868 4.35264 13.0878L10.8804 11.3387L17.4081 9.58967Z" fill="#7DA8EA"/>
<path d="M3.40836 12.6874C3.59396 13.0217 3.98327 13.1868 4.35264 13.0878L10.8804 11.3387L17.4081 9.58967C18.075 9.411 18.4706 8.72558 18.292 8.05875C18.1133 7.39189 17.4279 6.99617 16.7611 7.17484M3.40836 12.6874L1.64156 9.50477C1.42878 9.12147 1.63287 8.64026 2.05633 8.5268V8.5268C2.28777 8.46479 2.53473 8.53034 2.70495 8.69896L4.07863 10.0597C4.33124 10.3099 4.69773 10.4072 5.04118 10.3151L7.41469 9.67921C8.06755 9.50428 8.36244 8.74552 7.99905 8.17563L5.61213 4.43232C5.29596 3.93649 5.55253 3.27631 6.12055 3.12411V3.12411C6.4089 3.04685 6.71673 3.12281 6.93604 3.32534L11.9717 7.97574C12.2237 8.20852 12.5775 8.29582 12.9089 8.20702L16.7611 7.17484M3.40836 12.6874L1.53348 9.31008C1.3756 9.02567 1.52703 8.66862 1.84124 8.58443L2.15276 8.50097C2.32448 8.45496 2.50772 8.50359 2.63403 8.62871L4.28259 10.2617C4.4089 10.3868 4.59214 10.4355 4.76387 10.3894L8.07366 9.50265C8.40009 9.41518 8.54754 9.0358 8.36585 8.75086L5.34066 4.00658C5.15897 3.72164 5.30641 3.34226 5.63284 3.2548L6.31756 3.07132C6.48327 3.02692 6.66017 3.07057 6.7862 3.18696L12.1741 8.1627C12.3001 8.27909 12.477 8.32274 12.6427 8.27834L16.7611 7.17484" stroke="#7DA8EA" stroke-linecap="round" stroke-linejoin="round"/>
<rect x="2" y="15" width="16" height="2.5" rx="1.25" fill="#002394"/>
</svg>
