<svg width="20" height="20" viewBox="0 0 20 20" fill="none" xmlns="http://www.w3.org/2000/svg">
<path d="M7.3327 6C5.34221 6 5.46293 6.99962 4.73194 8.44876L4 10L16 9.99924L15.269 8.44876C14.5371 6.99962 14.6568 6 12.6683 6H7.3327Z" fill="#7DA8EA" stroke="#7DA8EA" stroke-linecap="round" stroke-linejoin="round"/>
<rect x="2" y="10" width="16" height="5" rx="1" fill="#7DA8EA" stroke="#7DA8EA" stroke-linejoin="round"/>
<path d="M1.14513 4.92547C0.951623 4.89124 0.951622 4.60876 1.14513 4.57453C1.84618 4.45051 2.40377 3.90753 2.55594 3.20069L2.5676 3.14651C2.60947 2.95204 2.88178 2.95083 2.92532 3.14492L2.93948 3.20806C3.09728 3.91157 3.65502 4.44996 4.35413 4.57363C4.54862 4.60804 4.54862 4.89196 4.35413 4.92637C3.65502 5.05004 3.09728 5.58843 2.93948 6.29194L2.92532 6.35508C2.88178 6.54918 2.60947 6.54796 2.5676 6.35349L2.55594 6.29931C2.40377 5.59247 1.84618 5.04949 1.14513 4.92547Z" fill="#7DA8EA"/>
<path d="M14.2073 3.75067C13.9309 3.70177 13.9309 3.29823 14.2073 3.24933C15.2088 3.07216 16.0054 2.29648 16.2228 1.2867L16.2394 1.2093C16.2992 0.93148 16.6883 0.929751 16.7505 1.20703L16.7707 1.29723C16.9961 2.30224 17.7929 3.07137 18.7916 3.24805C19.0695 3.2972 19.0695 3.7028 18.7916 3.75195C17.7929 3.92863 16.9961 4.69776 16.7707 5.70277L16.7505 5.79297C16.6883 6.07025 16.2992 6.06852 16.2394 5.7907L16.2228 5.7133C16.0054 4.70353 15.2088 3.92784 14.2073 3.75067Z" fill="#7DA8EA"/>
<path d="M5 17.5C3.89543 17.5 3 16.6046 3 15.5C3 14.3954 3.89543 13.5 5 13.5C6.10457 13.5 7 14.3954 7 15.5C7 16.6046 6.10457 17.5 5 17.5Z" fill="#002394" stroke="#002394" stroke-width="0.5" stroke-linecap="round" stroke-linejoin="round"/>
<path d="M15 17.5C13.8954 17.5 13 16.6046 13 15.5C13 14.3954 13.8954 13.5 15 13.5C16.1046 13.5 17 14.3954 17 15.5C17 16.6046 16.1046 17.5 15 17.5Z" fill="#002394" stroke="#002394" stroke-width="0.5" stroke-linecap="round" stroke-linejoin="round"/>
<path d="M9 6.5H6.3297C6.12968 6.5 5.94891 6.6192 5.87013 6.80304L4.7987 9.30304C4.6573 9.63297 4.89931 10 5.25827 10H9C9.27614 10 9.5 9.77614 9.5 9.5V7C9.5 6.72386 9.27614 6.5 9 6.5Z" fill="white"/>
<path d="M13.6703 6.5H11C10.7239 6.5 10.5 6.72386 10.5 7V9.5C10.5 9.77614 10.7239 10 11 10H14.7417C15.1007 10 15.3427 9.63297 15.2013 9.30304L14.1299 6.80304C14.0511 6.6192 13.8703 6.5 13.6703 6.5Z" fill="white"/>
</svg>
