<svg width="20" height="20" viewBox="0 0 20 20" fill="none" xmlns="http://www.w3.org/2000/svg">
<rect x="3" y="2" width="14" height="16" rx="1.5" fill="#002394"/>
<path fill-rule="evenodd" clip-rule="evenodd" d="M8.19922 5.69941C8.19922 4.7053 9.00511 3.89941 9.99922 3.89941C10.9933 3.89941 11.7992 4.7053 11.7992 5.69941C11.7992 6.69353 10.9933 7.49941 9.99922 7.49941C9.00511 7.49941 8.19922 6.69353 8.19922 5.69941Z" fill="#7DA8EA"/>
<path d="M6.39844 10.144C6.39844 8.41018 7.67015 7.72461 9.23888 7.72461H10.758C12.3267 7.72461 13.5984 8.41018 13.5984 10.144C13.5984 10.7961 13.1202 11.3246 12.5303 11.3246H7.46657C6.87666 11.3246 6.39844 10.7961 6.39844 10.144Z" fill="#7DA8EA"/>
<path d="M8.11216 13.044L7.14016 15.864H6.13616L5.16016 13.044H6.00016L6.64016 15.08L7.27616 13.044H8.11216Z" fill="white"/>
<path d="M9.14044 13.044V15.864H8.35644V13.044H9.14044Z" fill="white"/>
<path d="M10.6509 15.892C10.3229 15.892 10.0536 15.8147 9.84291 15.66C9.63224 15.5027 9.51891 15.2787 9.50291 14.988H10.3389C10.3469 15.0867 10.3762 15.1587 10.4269 15.204C10.4776 15.2493 10.5429 15.272 10.6229 15.272C10.6949 15.272 10.7536 15.2547 10.7989 15.22C10.8469 15.1827 10.8709 15.132 10.8709 15.068C10.8709 14.9853 10.8322 14.9213 10.7549 14.876C10.6776 14.8307 10.5522 14.78 10.3789 14.724C10.1949 14.6627 10.0456 14.604 9.93091 14.548C9.81891 14.4893 9.72024 14.4053 9.63491 14.296C9.55224 14.184 9.51091 14.0387 9.51091 13.86C9.51091 13.6787 9.55624 13.524 9.64691 13.396C9.73757 13.2653 9.86291 13.1667 10.0229 13.1C10.1829 13.0333 10.3642 13 10.5669 13C10.8949 13 11.1562 13.0773 11.3509 13.232C11.5482 13.384 11.6536 13.5987 11.6669 13.876H10.8149C10.8122 13.7907 10.7856 13.7267 10.7349 13.684C10.6869 13.6413 10.6242 13.62 10.5469 13.62C10.4882 13.62 10.4402 13.6373 10.4029 13.672C10.3656 13.7067 10.3469 13.756 10.3469 13.82C10.3469 13.8733 10.3669 13.92 10.4069 13.96C10.4496 13.9973 10.5016 14.0307 10.5629 14.06C10.6242 14.0867 10.7149 14.1213 10.8349 14.164C11.0136 14.2253 11.1602 14.2867 11.2749 14.348C11.3922 14.4067 11.4922 14.4907 11.5749 14.6C11.6602 14.7067 11.7029 14.8427 11.7029 15.008C11.7029 15.176 11.6602 15.3267 11.5749 15.46C11.4922 15.5933 11.3709 15.6987 11.2109 15.776C11.0536 15.8533 10.8669 15.892 10.6509 15.892Z" fill="white"/>
<path d="M13.8514 15.404H12.8514L12.6994 15.864H11.8754L12.9034 13.044H13.8074L14.8314 15.864H14.0034L13.8514 15.404ZM13.6554 14.804L13.3514 13.892L13.0514 14.804H13.6554Z" fill="white"/>
</svg>
