<svg width="20" height="20" viewBox="0 0 20 20" fill="none" xmlns="http://www.w3.org/2000/svg">
<rect x="3" y="7" width="14" height="10" rx="1.5" stroke="black" stroke-width="1.5"/>
<path d="M6.5 6.5C6.5 4.567 8.067 3 10 3V3V3C11.933 3 13.5 4.567 13.5 6.5V6.99621C13.5 6.9983 13.4983 7 13.4962 7H6.50568C6.50254 7 6.5 6.99746 6.5 6.99432V6.5Z" stroke="black" stroke-width="1.5"/>
<circle cx="10" cy="11" r="1.5" fill="black"/>
<path d="M9.19319 11.7272C9.22658 11.5937 9.34657 11.5 9.48423 11.5H10.5158C10.6534 11.5 10.7734 11.5937 10.8068 11.7272L11.4068 14.1272C11.4541 14.3166 11.3109 14.5 11.1158 14.5H8.88423C8.68906 14.5 8.54585 14.3166 8.59319 14.1272L9.19319 11.7272Z" fill="black"/>
</svg>
