<svg width="20" height="20" viewBox="0 0 20 20" fill="none" xmlns="http://www.w3.org/2000/svg">
<path d="M9.2601 7.18664L12.8134 10.7399L6.55326 17H3V13.4467L9.2601 7.18664ZM16.7521 5.61114L14.3889 3.24789C14.311 3.16934 14.2183 3.107 14.1161 3.06445C14.014 3.0219 13.9045 3 13.7939 3C13.6832 3 13.5737 3.0219 13.4716 3.06445C13.3694 3.107 13.2768 3.16934 13.1989 3.24789L10.7853 5.66142L14.3386 9.21468L16.7521 6.80115C16.8307 6.72324 16.893 6.63055 16.9355 6.52843C16.9781 6.42631 17 6.31677 17 6.20614C17 6.09551 16.9781 5.98598 16.9355 5.88386C16.893 5.78173 16.8307 5.68905 16.7521 5.61114Z" stroke="black" stroke-width="1.5" stroke-linecap="round" stroke-linejoin="round"/>
</svg>
