<svg width="20" height="20" viewBox="0 0 20 20" fill="none" xmlns="http://www.w3.org/2000/svg">
<path d="M11.5 11C13.9853 11 16 10.1046 16 9C16 7.89543 13.9853 7 11.5 7C9.01472 7 7 7.89543 7 9C7 10.1046 9.01472 11 11.5 11Z" stroke="black" stroke-width="1.5" stroke-linecap="round" stroke-linejoin="round"/>
<path d="M7 9V15C7 16.1 9 17 11.5 17C14 17 16 16.1 16 15V9" stroke="black" stroke-width="1.5" stroke-linecap="round" stroke-linejoin="round"/>
<path d="M16 12C16 13.1 14 14 11.5 14C9 14 7 13.1 7 12" stroke="black" stroke-width="1.5" stroke-linecap="round" stroke-linejoin="round"/>
<path d="M11.4 4.00878C10.2315 3.28765 8.87133 2.93889 7.5 3.00878C5.01 3.00878 3 3.90878 3 5.00878C3 5.59878 3.58 6.12878 4.5 6.50878" stroke="black" stroke-width="1.5" stroke-linecap="round" stroke-linejoin="round"/>
<path d="M4.5 12.5088C3.58 12.1288 3 11.5988 3 11.0088V5.00879" stroke="black" stroke-width="1.5" stroke-linecap="round" stroke-linejoin="round"/>
<path d="M4.5 9.50879C3.58 9.12879 3 8.59879 3 8.00879" stroke="black" stroke-width="1.5" stroke-linecap="round" stroke-linejoin="round"/>
</svg>
