<svg width="20" height="20" viewBox="0 0 20 20" fill="none" xmlns="http://www.w3.org/2000/svg">
<path d="M9.2293 10.9595L11.2113 12.9415L13.2248 10.928C13.4764 10.6763 13.9169 10.6763 14.2 10.928L16.8112 13.5392C17.0629 13.7909 17.0629 14.2313 16.8112 14.5145L15.0809 16.2448C14.4832 16.8426 13.6652 17.0942 12.8472 16.9684C11.463 16.7167 9.22929 15.9302 6.64955 13.3505C4.0698 10.7707 3.25183 8.53702 3.03161 7.15277C2.90577 6.3348 3.15745 5.48537 3.7552 4.91908L5.48551 3.18876C5.7372 2.93708 6.17764 2.93708 6.46078 3.18876L9.07199 5.79997C9.32368 6.05165 9.32368 6.4921 9.07199 6.77524L7.05853 8.7887L9.04053 10.7707L9.2293 10.9595Z" stroke="black" stroke-width="1.5" stroke-linecap="round" stroke-linejoin="round"/>
</svg>
