<svg width="20" height="20" viewBox="0 0 20 20" fill="none" xmlns="http://www.w3.org/2000/svg">
<path d="M18 5H2M18 5H14.4444M18 5V7.75C17.3333 8 16 8.9 16 10.5C16 11 16.4 12.25 18 13.25V16M2 5H5.55556M2 5V7.75C3.6 8.35 4 9.83333 4 10.5C4 12.1 2.66667 13 2 13.25V16M2 16H18M2 16H5.55556M18 16H14.4444" stroke="black" stroke-width="1.5" stroke-linecap="round" stroke-linejoin="round"/>
<path d="M12.1658 10.895L11.6108 11.535V12.45H10.7008V8.375H11.6108V10.295L13.2408 8.375H14.3558L12.7558 10.22L14.4408 12.45H13.3058L12.1658 10.895Z" fill="black"/>
<path d="M9.97999 8.375V12.45H9.06999V10.795H7.26999V12.45H6.35999V8.375H7.26999V9.99H9.06999V8.375H9.97999Z" fill="black"/>
</svg>
