<svg width="32" height="32" viewBox="0 0 32 32" fill="none" xmlns="http://www.w3.org/2000/svg">
<path d="M23.6054 4H15.9977V8.46787C15.7392 8.39088 15.4918 8.28365 15.2471 8.17092C14.8786 8.00046 14.4497 7.93997 13.9988 8.0307C13.218 8.18742 12.5911 8.81705 12.4399 9.60064C12.1924 10.8846 13.1712 12.0092 14.4112 12.0092C14.7164 12.0092 15.0051 11.9404 15.2636 11.8195C15.5028 11.7067 15.7447 11.5995 15.9977 11.528V15.9986H20.4683C20.3968 15.7457 20.2896 15.5037 20.1768 15.2645C20.0559 15.0061 19.9871 14.7174 19.9871 14.4122C19.9871 13.1722 21.1117 12.1934 22.3957 12.4408C23.1765 12.592 23.8089 13.2189 23.9656 13.9998C24.0563 14.4479 23.9931 14.8796 23.8254 15.248C23.7126 15.4927 23.6054 15.7402 23.5284 15.9986H27.9963V8.39363C27.9963 5.96861 26.0304 4 23.6027 4H23.6054Z" fill="#7DA8EA"/>
<path d="M13.9998 8.0307C14.4479 7.93997 14.8796 8.00321 15.248 8.17092C15.4927 8.28365 15.7402 8.39088 15.9986 8.46787V4H8.39363C5.96586 4 4 5.96586 4 8.39363V16.0014H8.46787C8.39088 16.2598 8.28365 16.5073 8.17092 16.752C8.00046 17.1204 7.93997 17.5493 8.0307 18.0002C8.18742 18.7811 8.81705 19.408 9.60064 19.5592C10.8846 19.8066 12.0092 18.8278 12.0092 17.5878C12.0092 17.2826 11.9404 16.9939 11.8195 16.7355C11.7067 16.4963 11.5995 16.2543 11.528 16.0014H15.9986V11.5308C15.7457 11.6022 15.5037 11.7095 15.2645 11.8222C15.0061 11.9432 14.7174 12.0119 14.4122 12.0119C13.1722 12.0119 12.1934 10.8874 12.4408 9.60339C12.592 8.82255 13.2189 8.19017 13.9998 8.03345V8.0307Z" fill="#002394"/>
<path d="M17.5851 19.9909C17.2799 19.9909 16.9912 20.0597 16.7327 20.1806C16.4935 20.2934 16.2516 20.4006 15.9986 20.4721V16.0015H11.528C11.5995 16.2544 11.7067 16.4964 11.8195 16.7356C11.9404 16.994 12.0092 17.2827 12.0092 17.5879C12.0092 18.8279 10.8846 19.8067 9.60064 19.5593C8.8198 19.408 8.18742 18.7812 8.0307 18.0003C7.93997 17.5522 8.00321 17.1205 8.17092 16.7521C8.28365 16.5074 8.39088 16.2599 8.46787 16.0015H4V23.6092C4 26.0342 5.96586 28.0028 8.39363 28.0028H16.0014V23.535C16.2598 23.612 16.5073 23.7192 16.752 23.8319C17.1204 24.0024 17.5493 24.0629 18.0002 23.9721C18.7811 23.8154 19.408 23.1858 19.5592 22.4022C19.8066 21.1182 18.8278 19.9937 17.5878 19.9937L17.5851 19.9909Z" fill="#7DA8EA"/>
<path d="M23.5278 15.9986C23.6048 15.7402 23.712 15.4927 23.8248 15.248C23.9952 14.8796 24.0557 14.4507 23.965 13.9998C23.8083 13.2189 23.1787 12.5921 22.3951 12.4408C21.1111 12.1934 19.9865 13.1722 19.9865 14.4122C19.9865 14.7174 20.0553 15.0061 20.1762 15.2645C20.289 15.5037 20.3962 15.7457 20.4677 15.9986H15.9971V20.4693C16.25 20.3978 16.492 20.2905 16.7312 20.1778C16.9896 20.0568 17.2783 19.9881 17.5835 19.9881C18.8235 19.9881 19.8023 21.1126 19.5549 22.3966C19.4036 23.1775 18.7768 23.8099 17.9959 23.9666C17.5478 24.0573 17.1161 23.9941 16.7477 23.8263C16.503 23.7136 16.2555 23.6064 15.9971 23.5294V27.9973H23.6048C26.0298 27.9973 27.9984 26.0314 27.9984 23.6036V15.9959H23.5306L23.5278 15.9986Z" fill="#002394"/>
</svg>
