<svg width="32" height="32" viewBox="0 0 32 32" fill="none" xmlns="http://www.w3.org/2000/svg">
<path fill-rule="evenodd" clip-rule="evenodd" d="M14 4.33627C14 4.09517 14.2465 3.93258 14.4681 4.02747L17.4117 5.28771C17.683 5.40384 17.6835 5.78823 17.4125 5.90499L15.0077 6.94116V10.9238C15.0077 11.202 14.7821 11.4276 14.5039 11.4276C14.2256 11.4276 14 11.202 14 10.9238V6.86487V6.6658V4.33627Z" fill="#002394"/>
<path d="M20.2151 15.2726C20.712 14.4645 21.9541 14.4645 22.4509 15.2726L29.1581 26.1817C29.655 26.9897 29.0339 27.9998 28.0403 27.9998H14.6257C13.6321 27.9998 13.011 26.9897 13.5079 26.1817L20.2151 15.2726Z" fill="#002394"/>
<path d="M22.4509 15.2726C21.9541 14.4645 20.712 14.4645 20.2151 15.2726L19.0968 17.0926C19.1245 17.0914 19.1522 17.0908 19.18 17.0908C19.7195 17.0908 19.9893 17.2959 20.259 17.5007C20.5262 17.7055 20.7935 17.9099 21.3305 17.9099C21.749 17.9099 22.0061 17.786 22.2255 17.6344C22.5709 17.3965 22.8255 17.0908 23.4835 17.0908C23.5138 17.0908 23.5415 17.0914 23.5692 17.0926L22.4509 15.2726Z" fill="#002394"/>
<path d="M13.1762 10.182C13.8386 9.05067 15.4947 9.05067 16.1572 10.182L25.1002 25.4547C25.7626 26.586 24.9346 28.0002 23.6097 28.0002H5.72365C4.39876 28.0002 3.5707 26.586 4.23315 25.4547L13.1762 10.182Z" fill="#7DA8EA"/>
<path d="M16.1572 10.182C15.4947 9.05067 13.8386 9.05067 13.1762 10.182L11.685 12.73C11.722 12.7284 11.759 12.7275 11.796 12.7275C12.5153 12.7275 12.875 13.0146 13.2347 13.3013C13.591 13.588 13.9473 13.8743 14.6633 13.8743C15.2213 13.8743 15.5642 13.7007 15.8566 13.4886C16.3172 13.1555 16.6567 12.7275 17.534 12.7275C17.5744 12.7275 17.6113 12.7284 17.6483 12.73L16.1572 10.182Z" fill="white"/>
</svg>
