<svg width="32" height="32" viewBox="0 0 32 32" fill="none" xmlns="http://www.w3.org/2000/svg">
<g clip-path="url(#clip0_3594_49558)">
<path d="M4.92936 10.8472L13.9238 15.5234C14.1174 15.624 14.3538 15.5876 14.508 15.4333L17.8746 12.0668C18.1531 11.7883 18.0153 11.3122 17.6312 11.2255L6.47843 8.70752C6.31109 8.66974 6.13606 8.72038 6.01476 8.84169L4.80645 10.05C4.56748 10.289 4.6295 10.6913 4.92936 10.8472Z" fill="#002394" stroke="#002394" stroke-linejoin="round"/>
<path d="M24.0632 26.2916L21.4061 14.5227C21.3684 14.3554 21.419 14.1804 21.5403 14.0591L26.4809 9.11843C26.856 8.74336 27.0667 8.23465 27.0667 7.70422C27.0667 7.17378 26.856 6.66508 26.4809 6.29C26.1058 5.91493 25.5971 5.70422 25.0667 5.70422C24.5363 5.70422 24.0276 5.91493 23.6525 6.29L18.517 11.4255L14.2499 15.6926L9.40442 20.5381C9.27603 20.6665 9.08813 20.7152 8.91354 20.6653L5.07918 19.5701C4.90459 19.5203 4.71669 19.569 4.5883 19.6973L3.82285 20.4628C3.59666 20.689 3.6381 21.0664 3.90796 21.2382L8.47381 24.1437C8.53555 24.183 8.58791 24.2354 8.6272 24.2971L11.5327 28.863C11.7045 29.1328 12.0819 29.1743 12.3081 28.9481L13.0735 28.1827C13.2019 28.0543 13.2506 27.8663 13.2007 27.6917L12.1048 23.8584C12.0549 23.6838 12.1035 23.4958 12.232 23.3674L16.595 19.0044C16.8339 18.7654 17.2362 18.8274 17.3921 19.1273L21.9235 27.8408C22.0794 28.1406 22.4817 28.2026 22.7207 27.9636L23.929 26.7553C24.0503 26.634 24.101 26.4589 24.0632 26.2916Z" fill="#7DA8EA" stroke="#7DA8EA" stroke-linejoin="round"/>
</g>
<defs>
<clipPath id="clip0_3594_49558">
<rect width="32" height="32" fill="white"/>
</clipPath>
</defs>
</svg>
