<svg width="32" height="32" viewBox="0 0 32 32" fill="none" xmlns="http://www.w3.org/2000/svg">
<circle cx="16" cy="16" r="12" fill="white"/>
<path fill-rule="evenodd" clip-rule="evenodd" d="M16.0003 5.33317C12.3475 5.33317 9.1301 7.16674 7.20794 9.97105C6.79161 10.5784 5.96172 10.7333 5.35433 10.317C4.74693 9.90069 4.59204 9.0708 5.00837 8.4634C7.4062 4.96511 11.4306 2.6665 16.0003 2.6665C23.3628 2.6665 29.3337 8.63737 29.3337 15.9998C29.3337 23.3623 23.3628 29.3332 16.0003 29.3332C8.63786 29.3332 2.66699 23.3623 2.66699 15.9998C2.66699 15.2635 3.26395 14.6665 4.00033 14.6665C4.73671 14.6665 5.33366 15.2635 5.33366 15.9998C5.33366 21.8895 10.1106 26.6665 16.0003 26.6665C21.89 26.6665 26.667 21.8895 26.667 15.9998C26.667 10.1101 21.89 5.33317 16.0003 5.33317Z" fill="#7DA8EA"/>
<path fill-rule="evenodd" clip-rule="evenodd" d="M15.3333 9.3335C16.0697 9.3335 16.6667 9.93045 16.6667 10.6668V17.3335C16.6667 18.0699 16.0697 18.6668 15.3333 18.6668C14.597 18.6668 14 18.0699 14 17.3335V10.6668C14 9.93045 14.597 9.3335 15.3333 9.3335Z" fill="#002394"/>
<path fill-rule="evenodd" clip-rule="evenodd" d="M14.2485 16.5585C14.6765 15.9592 15.5092 15.8204 16.1084 16.2485L20.7751 19.5818C21.3743 20.0098 21.5131 20.8425 21.0851 21.4418C20.6571 22.041 19.8243 22.1798 19.2251 21.7517L14.5585 18.4184C13.9592 17.9904 13.8204 17.1577 14.2485 16.5585Z" fill="#002394"/>
<path fill-rule="evenodd" clip-rule="evenodd" d="M5.33333 2.6665C6.06971 2.6665 6.66667 3.26346 6.66667 3.99984V9.33317C6.66667 10.0696 6.06971 10.6665 5.33333 10.6665C4.59695 10.6665 4 10.0696 4 9.33317V3.99984C4 3.26346 4.59695 2.6665 5.33333 2.6665Z" fill="#7DA8EA"/>
<path fill-rule="evenodd" clip-rule="evenodd" d="M4 9.33333C4 8.59695 4.59695 8 5.33333 8H10.6667C11.403 8 12 8.59695 12 9.33333C12 10.0697 11.403 10.6667 10.6667 10.6667H5.33333C4.59695 10.6667 4 10.0697 4 9.33333Z" fill="#7DA8EA"/>
</svg>
