<svg width="32" height="32" viewBox="0 0 32 32" fill="none" xmlns="http://www.w3.org/2000/svg">
<path d="M26.9815 12.4653H24.6722L24.1248 6.25024C24.0586 5.68052 23.5468 5.27136 22.9892 5.34128L22.0191 5.45781C21.7492 5.48889 21.5073 5.62873 21.3367 5.84625C21.1687 6.06378 21.0923 6.33569 21.1229 6.59983L21.6397 12.4653H10.3628L10.8771 6.61278C10.9102 6.33569 10.8339 6.06378 10.6658 5.84625C10.4978 5.62873 10.2559 5.49148 9.98345 5.45781L9.01337 5.34128C8.45321 5.27395 7.94398 5.68052 7.87778 6.26059L7.33036 12.4653H5.02101C4.45831 12.4653 4 12.9315 4 13.5038V14.4982C4 15.0705 4.45831 15.5366 5.02101 15.5366H7.06047L6.19223 25.3875C6.12603 25.9573 6.52578 26.4752 7.08593 26.5425L8.05602 26.6591C8.61362 26.729 9.1254 26.3198 9.1916 25.7397L10.0904 15.5366H21.9096L22.8084 25.7501C22.8695 26.2784 23.3125 26.6668 23.8218 26.6668C23.8625 26.6668 23.9032 26.6668 23.944 26.6591L24.9141 26.5425C25.4742 26.4752 25.874 25.9573 25.8078 25.4005L24.9395 15.5392H26.979C27.5417 15.5392 28 15.0731 28 14.5008V13.5064C28 12.9341 27.5417 12.4679 26.979 12.4679L26.9815 12.4653Z" fill="#7DA8EA"/>
<path d="M27.1461 7.32648C19.7517 8.22472 12.2435 8.22472 4.85148 7.32648C4.47413 7.28146 3.9952 5.80212 4.00004 5.80212C4.05809 5.4993 4.39431 5.29469 4.75472 5.3397C12.2096 6.28296 19.7904 6.28296 27.2453 5.3397C27.6057 5.29469 27.9419 5.4993 28 5.80212C28.0048 5.80212 27.5259 7.28146 27.1485 7.32648H27.1461Z" fill="#002394"/>
<path fill-rule="evenodd" clip-rule="evenodd" d="M3.34493 5.67646C3.48663 4.93731 4.22836 4.60201 4.83698 4.67802L4.83805 4.67816L4.83805 4.67816C12.2374 5.61439 19.7619 5.61439 27.1612 4.67816L27.1623 4.67802C27.7709 4.60201 28.5127 4.93731 28.6544 5.67646L28.6506 5.67717C28.6571 5.70354 28.6616 5.72605 28.6635 5.74051C28.67 5.81065 28.6634 5.86638 28.6619 5.87877L28.6618 5.87977C28.6577 5.9142 28.6517 5.9412 28.6503 5.94742L28.6502 5.94797C28.6462 5.96583 28.6422 5.98018 28.6411 5.98421C28.6379 5.99596 28.6345 6.00705 28.6322 6.01449C28.6271 6.0311 28.6205 6.05159 28.613 6.07443C28.5977 6.12079 28.576 6.18434 28.549 6.25938C28.4954 6.40857 28.4183 6.61062 28.3268 6.81725C28.2376 7.01851 28.124 7.24909 27.9936 7.44214C27.9289 7.53798 27.8454 7.6469 27.7419 7.74104C27.6468 7.82759 27.4725 7.95903 27.2271 7.9883C27.2211 7.98903 27.215 7.98967 27.2089 7.99022C19.7666 8.89286 12.2104 8.89217 4.7707 7.98813C4.52612 7.95852 4.35232 7.82742 4.25737 7.74104C4.15389 7.6469 4.07033 7.53798 4.00564 7.44214C3.87533 7.24909 3.76166 7.0185 3.67252 6.81725C3.581 6.61062 3.5039 6.40857 3.45026 6.25938C3.42328 6.18434 3.40156 6.12079 3.38627 6.07443C3.37874 6.05159 3.37216 6.0311 3.36706 6.01449C3.36477 6.00705 3.36141 5.99596 3.35816 5.98421L3.35813 5.98411C3.35697 5.97994 3.35302 5.96568 3.34908 5.94797L3.34896 5.94745C3.34759 5.94129 3.34155 5.91426 3.33751 5.87977C3.33747 5.87947 3.33743 5.87914 3.33739 5.87876C3.33592 5.86638 3.32932 5.81065 3.33582 5.74051C3.33766 5.72605 3.34222 5.70354 3.34865 5.67717L3.34493 5.67646Z" fill="#002394"/>
<path d="M10.0531 24H5.94625C5.60756 24 5.33301 24.2672 5.33301 24.5969V26.0698C5.33301 26.3994 5.60756 26.6667 5.94625 26.6667H10.0531C10.3918 26.6667 10.6663 26.3994 10.6663 26.0698V24.5969C10.6663 24.2672 10.3918 24 10.0531 24Z" fill="#7DA8EA"/>
<path fill-rule="evenodd" clip-rule="evenodd" d="M5.99935 24.6668V26.0002H9.99935V24.6668H5.99935ZM4.66602 24.5971C4.66602 23.8824 5.25614 23.3335 5.94592 23.3335H10.0528C10.7426 23.3335 11.3327 23.8824 11.3327 24.5971V26.0699C11.3327 26.7846 10.7426 27.3335 10.0528 27.3335H5.94592C5.25614 27.3335 4.66602 26.7846 4.66602 26.0699V24.5971Z" fill="#7DA8EA"/>
<path d="M21.9459 24H26.0534C26.3904 24 26.6663 24.2662 26.6663 24.5969V26.0698C26.6663 26.3979 26.393 26.6667 26.0534 26.6667H21.9459C21.609 26.6667 21.333 26.4005 21.333 26.0698V24.5969C21.333 24.2687 21.6063 24 21.9459 24Z" fill="#7DA8EA"/>
<path fill-rule="evenodd" clip-rule="evenodd" d="M21.9993 24.6668V26.0002H25.9993V24.6668H21.9993ZM20.666 24.5971C20.666 23.886 21.2527 23.3335 21.9456 23.3335H26.0531C26.7396 23.3335 27.3327 23.8797 27.3327 24.5971V26.0699C27.3327 26.781 26.746 27.3335 26.0531 27.3335H21.9456C21.2591 27.3335 20.666 26.7873 20.666 26.0699V24.5971Z" fill="#7DA8EA"/>
</svg>
