<svg width="32" height="32" viewBox="0 0 32 32" fill="none" xmlns="http://www.w3.org/2000/svg">
<path fill-rule="evenodd" clip-rule="evenodd" d="M15.9997 5.33317C13.7905 5.33317 11.9997 7.12403 11.9997 9.33317H19.9997C19.9997 7.12403 18.2088 5.33317 15.9997 5.33317ZM9.33301 9.33317C9.33301 5.65127 12.3178 2.6665 15.9997 2.6665C19.6816 2.6665 22.6663 5.65127 22.6663 9.33317V10.6602C22.6663 11.3999 22.0667 11.9998 21.3267 11.9998H10.6758C9.9342 11.9998 9.33301 11.3986 9.33301 10.657V9.33317Z" fill="#002394"/>
<path d="M4 13.3332C4 11.8604 5.19391 10.6665 6.66667 10.6665H25.3333C26.8061 10.6665 28 11.8604 28 13.3332V25.3332C28 26.8059 26.8061 27.9998 25.3333 27.9998H6.66667C5.19391 27.9998 4 26.8059 4 25.3332V13.3332Z" fill="#5B7BDA"/>
<path fill-rule="evenodd" clip-rule="evenodd" d="M2.66699 13.3335C2.66699 11.1244 4.45785 9.3335 6.66699 9.3335H25.3337C27.5428 9.3335 29.3337 11.1244 29.3337 13.3335V25.3335C29.3337 27.5426 27.5428 29.3335 25.3337 29.3335H6.66699C4.45785 29.3335 2.66699 27.5426 2.66699 25.3335V13.3335ZM6.66699 12.0002C5.93061 12.0002 5.33366 12.5971 5.33366 13.3335V25.3335C5.33366 26.0699 5.93061 26.6668 6.66699 26.6668H25.3337C26.07 26.6668 26.667 26.0699 26.667 25.3335V13.3335C26.667 12.5971 26.07 12.0002 25.3337 12.0002H6.66699Z" fill="#5B7BDA"/>
<circle cx="15.9997" cy="17.3332" r="2.66667" fill="white"/>
<path d="M14.5717 19.0452C14.6273 18.8227 14.8273 18.6665 15.0567 18.6665H16.9426C17.1721 18.6665 17.372 18.8227 17.4277 19.0452L18.511 23.3786C18.5899 23.6941 18.3512 23.9998 18.026 23.9998H13.9734C13.6481 23.9998 13.4094 23.6941 13.4883 23.3786L14.5717 19.0452Z" fill="white"/>
</svg>
