<svg width="32" height="32" viewBox="0 0 32 32" fill="none" xmlns="http://www.w3.org/2000/svg">
<path d="M16 9.3335H6.66667C5.19391 9.3335 4 10.5274 4 12.0002V25.3335C4 26.8063 5.19391 28.0002 6.66667 28.0002H16C17.4728 28.0002 18.6667 26.8063 18.6667 25.3335V12.0002C18.6667 10.5274 17.4728 9.3335 16 9.3335Z" fill="#7DA8EA"/>
<path d="M14.0003 12H7.33366C6.96547 12 6.66699 12.2985 6.66699 12.6667V15.3333C6.66699 15.7015 6.96547 16 7.33366 16H14.0003C14.3685 16 14.667 15.7015 14.667 15.3333V12.6667C14.667 12.2985 14.3685 12 14.0003 12Z" fill="white"/>
<path d="M14.0003 17.3335H7.33366C6.96547 17.3335 6.66699 17.632 6.66699 18.0002V20.6668C6.66699 21.035 6.96547 21.3335 7.33366 21.3335H14.0003C14.3685 21.3335 14.667 21.035 14.667 20.6668V18.0002C14.667 17.632 14.3685 17.3335 14.0003 17.3335Z" fill="white"/>
<path d="M25.3333 4H14.6667C13.1939 4 12 5.19391 12 6.66667V25.3333C12 26.8061 13.1939 28 14.6667 28H25.3333C26.8061 28 28 26.8061 28 25.3333V6.66667C28 5.19391 26.8061 4 25.3333 4Z" fill="#002394"/>
<path fill-rule="evenodd" clip-rule="evenodd" d="M14.667 8.00016C14.667 7.63197 14.9655 7.3335 15.3337 7.3335H18.0003C18.3685 7.3335 18.667 7.63197 18.667 8.00016C18.667 8.36835 18.3685 8.66683 18.0003 8.66683H15.3337C14.9655 8.66683 14.667 8.36835 14.667 8.00016Z" fill="white"/>
<path fill-rule="evenodd" clip-rule="evenodd" d="M21.333 8.00016C21.333 7.63197 21.6315 7.3335 21.9997 7.3335H24.6663C25.0345 7.3335 25.333 7.63197 25.333 8.00016C25.333 8.36835 25.0345 8.66683 24.6663 8.66683H21.9997C21.6315 8.66683 21.333 8.36835 21.333 8.00016Z" fill="white"/>
<path fill-rule="evenodd" clip-rule="evenodd" d="M14.667 12.0002C14.667 11.632 14.9655 11.3335 15.3337 11.3335H18.0003C18.3685 11.3335 18.667 11.632 18.667 12.0002C18.667 12.3684 18.3685 12.6668 18.0003 12.6668H15.3337C14.9655 12.6668 14.667 12.3684 14.667 12.0002Z" fill="white"/>
<path fill-rule="evenodd" clip-rule="evenodd" d="M14.667 16.0002C14.667 15.632 14.9655 15.3335 15.3337 15.3335H18.0003C18.3685 15.3335 18.667 15.632 18.667 16.0002C18.667 16.3684 18.3685 16.6668 18.0003 16.6668H15.3337C14.9655 16.6668 14.667 16.3684 14.667 16.0002Z" fill="white"/>
<path fill-rule="evenodd" clip-rule="evenodd" d="M21.333 12.0002C21.333 11.632 21.6315 11.3335 21.9997 11.3335H24.6663C25.0345 11.3335 25.333 11.632 25.333 12.0002C25.333 12.3684 25.0345 12.6668 24.6663 12.6668H21.9997C21.6315 12.6668 21.333 12.3684 21.333 12.0002Z" fill="white"/>
<path fill-rule="evenodd" clip-rule="evenodd" d="M21.333 16.0002C21.333 15.632 21.6315 15.3335 21.9997 15.3335H24.6663C25.0345 15.3335 25.333 15.632 25.333 16.0002C25.333 16.3684 25.0345 16.6668 24.6663 16.6668H21.9997C21.6315 16.6668 21.333 16.3684 21.333 16.0002Z" fill="white"/>
<path fill-rule="evenodd" clip-rule="evenodd" d="M16.667 28V23.3333C16.667 21.4924 18.1594 20 20.0003 20C21.8413 20 23.3337 21.4924 23.3337 23.3333V28" fill="white"/>
</svg>
