<svg width="32" height="32" viewBox="0 0 32 32" fill="none" xmlns="http://www.w3.org/2000/svg">
<path d="M28 9.81924C28 9.12493 27.3098 8.64192 26.6575 8.87972L21.3314 10.8213C20.8198 11.0078 20.2542 10.9776 19.7653 10.7377L12.1786 7.01453C11.723 6.79092 11.1993 6.74892 10.7139 6.89704L4.70818 8.7294C4.28744 8.85777 4 9.24599 4 9.68587V24.1386C4 24.8787 4.77603 25.3624 5.44046 25.0364L10.1724 22.7148C10.799 22.4074 11.5405 22.4488 12.129 22.8242L19.2604 27.3733C19.8674 27.7606 20.6357 27.7916 21.272 27.4547L27.468 24.1734C27.7953 24.0001 28 23.66 28 23.2897V9.81924Z" fill="#002394"/>
<path d="M24.667 9.62058C24.667 11.9907 20.667 16.0002 20.667 16.0002C20.667 16.0002 16.667 11.9907 16.667 9.62058C16.667 7.25043 18.4556 5.3335 20.667 5.3335C22.8784 5.3335 24.667 7.25043 24.667 9.62058Z" fill="#7DA8EA" stroke="#7DA8EA" stroke-width="1.5" stroke-linecap="round" stroke-linejoin="round"/>
<path d="M20.667 11.3335C21.7716 11.3335 22.667 10.4381 22.667 9.3335C22.667 8.22893 21.7716 7.3335 20.667 7.3335C19.5624 7.3335 18.667 8.22893 18.667 9.3335C18.667 10.4381 19.5624 11.3335 20.667 11.3335Z" fill="white"/>
</svg>
