<svg width="32" height="32" viewBox="0 0 32 32" fill="none" xmlns="http://www.w3.org/2000/svg">
<rect x="4.80078" y="3.2002" width="22.4" height="25.6" rx="1.5" fill="#002394"/>
<path fill-rule="evenodd" clip-rule="evenodd" d="M13.1211 9.11926C13.1211 7.52868 14.4105 6.23926 16.0011 6.23926C17.5917 6.23926 18.8811 7.52868 18.8811 9.11926C18.8811 10.7098 17.5917 11.9993 16.0011 11.9993C14.4105 11.9993 13.1211 10.7098 13.1211 9.11926Z" fill="#7DA8EA"/>
<path d="M10.2422 16.2305C10.2422 13.4563 12.2769 12.3594 14.7869 12.3594H17.2175C19.7275 12.3594 21.7622 13.4563 21.7622 16.2305C21.7622 17.2737 20.997 18.1194 20.0532 18.1194H11.9512C11.0073 18.1194 10.2422 17.2737 10.2422 16.2305Z" fill="#7DA8EA"/>
<path d="M12.9771 20.8702L11.4219 25.3822H9.81551L8.25391 20.8702H9.59791L10.6219 24.1278L11.6395 20.8702H12.9771Z" fill="white"/>
<path d="M14.6224 20.8702V25.3822H13.368V20.8702H14.6224Z" fill="white"/>
<path d="M17.0391 25.427C16.5143 25.427 16.0834 25.3033 15.7463 25.0558C15.4092 24.8041 15.2279 24.4457 15.2023 23.9806H16.5399C16.5527 24.1385 16.5996 24.2537 16.6807 24.3262C16.7618 24.3987 16.8663 24.435 16.9943 24.435C17.1095 24.435 17.2034 24.4073 17.2759 24.3518C17.3527 24.2921 17.3911 24.211 17.3911 24.1086C17.3911 23.9763 17.3292 23.8739 17.2055 23.8014C17.0818 23.7289 16.8812 23.6478 16.6039 23.5582C16.3095 23.4601 16.0706 23.3662 15.8871 23.2766C15.7079 23.1827 15.55 23.0483 15.4135 22.8734C15.2812 22.6942 15.2151 22.4617 15.2151 22.1758C15.2151 21.8857 15.2876 21.6382 15.4327 21.4334C15.5778 21.2243 15.7783 21.0665 16.0343 20.9598C16.2903 20.8531 16.5804 20.7998 16.9047 20.7998C17.4295 20.7998 17.8476 20.9235 18.1591 21.171C18.4748 21.4142 18.6434 21.7577 18.6647 22.2014H17.3015C17.2972 22.0649 17.2546 21.9625 17.1735 21.8942C17.0967 21.8259 16.9964 21.7918 16.8727 21.7918C16.7788 21.7918 16.702 21.8195 16.6423 21.875C16.5826 21.9305 16.5527 22.0094 16.5527 22.1118C16.5527 22.1971 16.5847 22.2718 16.6487 22.3358C16.717 22.3955 16.8002 22.4489 16.8983 22.4958C16.9964 22.5385 17.1415 22.5939 17.3335 22.6622C17.6194 22.7603 17.854 22.8585 18.0375 22.9566C18.2252 23.0505 18.3852 23.1849 18.5175 23.3598C18.654 23.5305 18.7223 23.7481 18.7223 24.0126C18.7223 24.2814 18.654 24.5225 18.5175 24.7358C18.3852 24.9491 18.1911 25.1177 17.9351 25.2414C17.6834 25.3651 17.3847 25.427 17.0391 25.427Z" fill="white"/>
<path d="M22.1599 24.6462H20.5599L20.3167 25.3822H18.9983L20.6431 20.8702H22.0895L23.7279 25.3822H22.4031L22.1599 24.6462ZM21.8463 23.6862L21.3599 22.227L20.8799 23.6862H21.8463Z" fill="white"/>
</svg>
