<svg width="40" height="40" viewBox="0 0 40 40" fill="none" xmlns="http://www.w3.org/2000/svg">
<g clip-path="url(#clip0_2549_34117)">
<circle cx="20" cy="20" r="20" fill="#7DA8EA"/>
<g filter="url(#filter0_d_2549_34117)">
<path d="M15.2912 28.8242L10 30L11.1758 24.7088C10.4254 23.3056 10 21.7025 10 20C10 14.4771 14.4771 10 20 10C25.5228 10 30 14.4771 30 20C30 25.5228 25.5228 30 20 30C18.2975 30 16.6944 29.5746 15.2912 28.8242ZM15 20C15 22.7614 17.2386 25 20 25C22.7614 25 25 22.7614 25 20H23C23 21.6569 21.6569 23 20 23C18.3431 23 17 21.6569 17 20H15Z" fill="white"/>
</g>
</g>
<defs>
<filter id="filter0_d_2549_34117" x="7" y="7" width="32" height="32" filterUnits="userSpaceOnUse" color-interpolation-filters="sRGB">
<feFlood flood-opacity="0" result="BackgroundImageFix"/>
<feColorMatrix in="SourceAlpha" type="matrix" values="0 0 0 0 0 0 0 0 0 0 0 0 0 0 0 0 0 0 127 0" result="hardAlpha"/>
<feOffset dx="3" dy="3"/>
<feGaussianBlur stdDeviation="3"/>
<feComposite in2="hardAlpha" operator="out"/>
<feColorMatrix type="matrix" values="0 0 0 0 0 0 0 0 0 0 0 0 0 0 0 0 0 0 0.25 0"/>
<feBlend mode="normal" in2="BackgroundImageFix" result="effect1_dropShadow_2549_34117"/>
<feBlend mode="normal" in="SourceGraphic" in2="effect1_dropShadow_2549_34117" result="shape"/>
</filter>
<clipPath id="clip0_2549_34117">
<rect width="40" height="40" fill="white"/>
</clipPath>
</defs>
</svg>
